<?xml version="1.0" encoding="UTF-8"?>
<svg width="158px" height="48px" viewBox="0 0 158 48" version="1.1" xmlns="http://www.w3.org/2000/svg" xmlns:xlink="http://www.w3.org/1999/xlink">
    <!-- Generator: Sketch 50.2 (55047) - http://www.bohemiancoding.com/sketch -->
    <title>Amazon.com-Logo</title>
    <desc>Created with Sketch.</desc>
    <defs></defs>
    <g id="Page-1" stroke="none" stroke-width="1" fill="none" fill-rule="evenodd">
        <g id="Amazon-Page" transform="translate(-561.000000, -679.000000)">
            <g id="Amazon.com-Logo" transform="translate(561.000000, 679.000000)">
                <path d="M97.326993,37.7635699 C88.2015333,44.4386197 74.9747366,48 63.586711,48 C47.6188618,48 33.2437001,42.1389851 22.3683345,32.3909748 C21.513892,31.6244257 22.2794695,30.5797575 23.3048057,31.1767096 C35.0414449,37.9535124 49.5533263,42.0304476 64.5436913,42.0304476 C74.6534661,42.0304476 85.7749098,39.9546671 96.0008954,35.6470934 C97.5457309,34.9958661 98.8376492,36.6510629 97.326993,37.7635699" id="path8" fill="#FF9900"></path>
                <path d="M101.68424,33.0128745 C100.494059,31.5601112 93.7870635,32.3264782 90.7766169,32.6663452 C89.859477,32.7729702 89.7194607,32.0132681 90.5455788,31.4668109 C95.8873748,27.8882151 104.652681,28.9211433 105.674833,30.1206726 C106.696979,31.3268692 105.408793,39.69026 100.389044,43.6820235 C99.61893,44.2951165 98.8838203,43.9685818 99.2268752,43.1555633 C100.35404,40.4766139 102.881418,34.4723027 101.68424,33.0128745" id="path10" fill="#FF9900"></path>
                <path d="M90.9002493,5.4550638 L90.9002493,1.89918662 C90.9002493,1.3610367 91.3063767,1 91.793729,1 L107.612393,1 C108.120057,1 108.526184,1.36784954 108.526184,1.89918662 L108.526184,4.94416267 C108.51942,5.4550638 108.092981,6.12264222 107.334873,7.17850612 L99.1378673,18.9565017 C102.183827,18.8815734 105.399003,19.3379744 108.160669,20.904742 C108.783398,21.2589659 108.952618,21.7766798 109,22.2875862 L109,26.0818844 C109,26.5995984 108.43142,27.2058638 107.835767,26.8925144 C102.969003,24.3243779 96.5048077,24.0450849 91.123618,26.9197632 C90.5753469,27.2194921 90,26.6200343 90,26.1023203 L90,22.4987584 C90,21.9197366 90.0067644,20.9319882 90.5821113,20.0532375 L100.078729,6.34744017 L91.8140353,6.34744017 C91.3063767,6.34744017 90.9002493,5.98640607 90.9002493,5.4550638" id="path12" fill="#221F1F"></path>
                <path d="M32.774633,27 L27.8751536,27 C27.4065716,26.966067 27.0344564,26.6199129 27,26.1787325 L27,1.41176904 C27,0.916293798 27.4203499,0.522625241 27.9440638,0.522625241 L32.5127761,0.522625241 C32.9882578,0.542974151 33.367257,0.902714914 33.401716,1.3506783 L33.401716,4.58823902 L33.4912989,4.58823902 C34.683436,1.45927572 36.9229981,0 39.9412471,0 C43.007728,0 44.9234175,1.45927572 46.3016121,4.58823902 C47.48686,1.45927572 50.1812285,0 53.0685489,0 C55.1220587,0 57.3685152,0.834841203 58.7398181,2.70814474 C60.2902868,4.79185497 59.9733007,7.81900382 59.9733007,10.4728537 L59.9664115,26.1040758 C59.9664115,26.5995511 59.5460616,27 59.0223478,27 L54.1297549,27 C53.6405001,26.966067 53.2477147,26.5791892 53.2477147,26.1040758 L53.2477147,12.9773773 C53.2477147,11.9321295 53.3441842,9.32579398 53.1098945,8.33484092 C52.7446737,6.67194925 51.6490087,6.20361883 50.2294658,6.20361883 C49.0442179,6.20361883 47.8038435,6.98416262 47.3008024,8.23303423 C46.7977614,9.48190326 46.8459987,11.5723965 46.8459987,12.9773773 L46.8459987,26.1040758 C46.8459987,26.5995511 46.4256488,27 45.901935,27 L41.0093475,27 C40.5131983,26.966067 40.1273021,26.5791892 40.1273021,26.1040758 L40.1204129,12.9773773 C40.1204129,10.2149352 40.5821031,6.14932142 37.1021665,6.14932142 C33.5808765,6.14932142 33.7186968,10.1131207 33.7186968,12.9773773 L33.7186968,26.1040758 C33.7186968,26.5995511 33.2983468,27 32.774633,27" id="path14" fill="#221F1F"></path>
                <path d="M122.911349,2.99505006e-14 C130.106016,2.99505006e-14 134,6.25752359 134,14.2141116 C134,21.9013326 129.696836,28 122.911349,28 C115.846251,28 112,21.7424764 112,13.9447472 C112,6.09866745 115.893989,0 122.911349,0 M122.952264,5.1455385 C119.378803,5.1455385 119.153753,10.0769601 119.153753,13.1504717 C119.153753,16.2308857 119.106015,22.8061189 122.911349,22.8061189 C126.668943,22.8061189 126.846253,17.5017322 126.846253,14.2693618 C126.846253,12.1420847 126.757598,9.60039698 126.123372,7.58362027 C125.577804,5.8293083 124.493494,5.1455385 122.952264,5.1455385" id="path16" fill="#221F1F"></path>
                <path d="M143.730912,27 L138.883258,27 C138.39712,26.966067 138.006843,26.5791892 138.006843,26.1040758 L138,1.33031644 C138.041082,0.875564912 138.445054,0.522625241 138.938036,0.522625241 L143.450192,0.522625241 C143.8747,0.542974151 144.223896,0.828055645 144.319757,1.21493346 L144.319757,5.00226166 L144.408763,5.00226166 C145.771314,1.61538499 147.681614,0 151.043476,0 C153.227659,0 155.35707,0.780543788 156.726464,2.91855143 C158,4.90045239 158,8.23303423 158,10.6289578 L158,26.2194614 C157.945225,26.6538459 157.541253,27 157.06197,27 L152.180077,27 C151.73502,26.966067 151.365284,26.6402748 151.317359,26.2194614 L151.317359,12.7669707 C151.317359,10.0588259 151.632319,6.09502141 148.270454,6.09502141 C147.085932,6.09502141 145.99726,6.88235594 145.45635,8.07692237 C144.771657,9.59050068 144.682646,11.0972883 144.682646,12.7669707 L144.682646,26.1040758 C144.675803,26.5995511 144.251287,27 143.730917,27" id="path18" fill="#221F1F"></path>
                <path d="M78.1796935,15.6436152 C78.1796935,17.5525481 78.2270725,19.1444751 77.279503,20.839776 C76.5146804,22.2180709 75.2963778,23.06572 73.9494767,23.06572 C72.1017167,23.06572 71.018782,21.632292 71.018782,19.5166141 C71.018782,15.3403913 74.6939945,14.5823314 78.1796935,14.5823314 L78.1796935,15.6436152 M83.0326012,27.5865126 C82.7144918,27.8759546 82.2542402,27.8966288 81.8955184,27.703671 C80.2981865,26.3529452 80.0071486,25.7258231 79.1340322,24.43712 C76.4943754,27.1799201 74.6195388,28 71.2015237,28 C67.1472819,28 64,25.4570527 64,20.3642684 C64,16.3878931 66.1117287,13.6795493 69.1304122,12.35639 C71.7429949,11.1848375 75.3911307,10.9780977 78.1796935,10.6541995 L78.1796935,10.0201851 C78.1796935,8.85552488 78.2676823,7.47723257 77.5908485,6.47108446 C77.00877,5.56829967 75.8852203,5.19616072 74.890277,5.19616072 C73.0560502,5.19616072 71.4248829,6.15407331 71.025546,8.13881351 C70.9443264,8.57987009 70.6262169,9.01403177 70.1862703,9.03470601 L65.5228788,8.52473441 C65.1303137,8.43515041 64.6903722,8.11124698 64.8054351,7.49791206 C65.8748338,1.73665194 70.9917079,0 75.5671083,0 C77.9089605,0 80.9682538,0.63401441 82.8160138,2.4395761 C85.1578608,4.66551751 84.9345068,7.63573683 84.9345068,10.8678342 L84.9345068,18.5035711 C84.9345068,20.7984301 85.8685379,21.8045782 86.7484235,23.0450458 C87.0530024,23.4860945 87.1206863,24.0167377 86.7281057,24.3475281 C85.7466955,25.1813979 84.0004601,26.7319764 83.0393549,27.6002998 L83.0325909,27.5864994" id="path28" fill="#221F1F"></path>
                <path d="M14.1759902,15.6436152 C14.1759902,17.5525481 14.2233517,19.1444751 13.2760346,20.839776 C12.5114066,22.2180709 11.3001897,23.06572 9.94687294,23.06572 C8.09959562,23.06572 7.02371118,21.632292 7.02371118,19.5166141 C7.02371118,15.3403913 10.6979636,14.5823314 14.1759902,14.5823314 L14.1759902,15.6436152 M19.0276278,27.5865126 C18.7095988,27.8759546 18.2494675,27.8966288 17.8908393,27.703671 C16.2939299,26.3529452 16.0097302,25.7258231 15.1300744,24.43712 C12.491107,27.1799201 10.6235352,28 7.19964026,28 C3.15322228,28 0,25.4570527 0,20.3642684 C0,16.3878931 2.11793964,13.6795493 5.12906724,12.35639 C7.74096747,11.1848375 11.3881555,10.9780977 14.1759902,10.6541995 L14.1759902,10.0201851 C14.1759902,8.85552488 14.2639561,7.47723257 13.5940638,6.47108446 C13.0053672,5.56829967 11.8821187,5.19616072 10.8941949,5.19616072 C9.06045496,5.19616072 7.42293854,6.15407331 7.02371118,8.13881351 C6.94251016,8.57987009 6.62448123,9.01403177 6.19142205,9.03470601 L1.522481,8.52473441 C1.13001845,8.43515041 0.696956684,8.11124698 0.805222126,7.49791206 C1.88110915,1.73665194 6.98987677,0 11.5640898,0 C13.9053228,0 16.963817,0.63401441 18.8110943,2.4395761 C21.1523348,4.66551751 20.9290339,7.63573683 20.9290339,10.8678342 L20.9290339,18.5035711 C20.9290339,20.7984301 21.8628263,21.8045782 22.742482,23.0450458 C23.0537436,23.4860945 23.1214098,24.0167377 22.7289472,24.3475281 C21.7477934,25.1813979 20.0020167,26.7319764 19.0411574,27.6002998 L19.0276278,27.5864994" id="path30" fill="#221F1F"></path>
            </g>
        </g>
    </g>
</svg>