<?xml version="1.0" encoding="UTF-8"?>
<svg width="98px" height="32px" viewBox="0 0 98 32" version="1.1" xmlns="http://www.w3.org/2000/svg" xmlns:xlink="http://www.w3.org/1999/xlink">
    <!-- Generator: Sketch 50.2 (55047) - http://www.bohemiancoding.com/sketch -->
    <title>30179681_836675609872792_8426385810781110272_n</title>
    <desc>Created with Sketch.</desc>
    <defs></defs>
    <g id="Symbols" stroke="none" stroke-width="1" fill="none" fill-rule="evenodd">
        <g id="button-/-apple">
            <g id="30179681_836675609872792_8426385810781110272_n">
                <g id="Group">
                    <g id="Shape">
                        <path d="M7.78665533,1.35525272e-20 C7.48718367,1.35525272e-20 7.19130533,1.35525272e-20 6.89262583,0.00163333333 C6.64260333,0.00326666667 6.3945735,0.0080115 6.14215,0.012005 C5.59376951,0.0184581396 5.04667862,0.0667022789 4.50563167,0.156318167 C3.96534467,0.247884979 3.44198256,0.420514521 2.95324633,0.668368167 C2.46510785,0.918318564 2.01908176,1.24310348 1.63134883,1.6309405 C1.24158037,2.01768688 0.916678265,2.46471338 0.669135833,2.95483067 C0.420910197,3.44397245 0.24878974,3.96813294 0.158719167,4.50920867 C0.0677922686,5.04960101 0.0188636775,5.59622511 0.0123725,6.14417533 C0.00479383333,6.39456533 0.0039935,6.64578833 0,6.896211 L0,25.7728567 C0.0039935,26.0264317 0.00479383333,26.272085 0.0123725,26.5257417 C0.0188656681,27.0736647 0.06779426,27.6202615 0.158719167,28.1606267 C0.248541028,28.7020187 0.420671662,29.2264801 0.669135833,29.715805 C0.916565866,30.2043374 1.24151366,30.6495541 1.63134883,31.03415 C2.0176116,31.4237115 2.46392599,31.7487174 2.95324633,31.996755 C3.44197884,32.245272 3.96528453,32.4189291 4.50563167,32.5119083 C5.04677059,32.6008064 5.59380522,32.6490701 6.14215,32.656295 C6.3945735,32.6618483 6.64260333,32.6650333 6.89262583,32.6650333 C7.19129717,32.6666667 7.4872,32.6666667 7.78665533,32.6666667 L89.9433955,32.6666667 C90.2369055,32.6666667 90.5351522,32.6666667 90.8286622,32.6650333 C91.0775005,32.6650333 91.3327088,32.6618483 91.5815472,32.656295 C92.1288552,32.6494544 92.67486,32.6011875 93.2148805,32.5119083 C93.7569708,32.4182745 94.2821526,32.2446635 94.7732438,31.996755 C95.2621228,31.7485738 95.7080253,31.4235767 96.0939572,31.03415 C96.4827865,30.6480478 96.8084281,30.2031568 97.0589305,29.715805 C97.3055303,29.2261241 97.4760223,28.7017047 97.5645288,28.1606267 C97.6555993,27.6201874 97.7062641,27.0737122 97.7161022,26.5257417 C97.7192872,26.272085 97.7192872,26.0264317 97.7192872,25.7728567 C97.7256572,25.4761617 97.7256572,25.1811 97.7256572,24.8795867 L97.7256572,7.7878395 C97.7256572,7.488768 97.7256572,7.19208933 97.7192872,6.896211 C97.7192872,6.64578833 97.7192872,6.39456533 97.7161022,6.14414267 C97.7062661,5.596145 97.6556013,5.04964246 97.5645288,4.509176 C97.4757757,3.9684133 97.3052935,3.44429434 97.0589305,2.954798 C96.554822,1.97241013 95.7554516,1.17275407 94.7732438,0.668294667 C94.2821511,0.421046694 93.7569132,0.248463001 93.2148805,0.156244667 C92.6749535,0.0662339396 92.1288918,0.017973008 91.5815472,0.0118906667 C91.3327088,0.00790533333 91.0775005,0.00311966667 90.8286622,0.00152716667 C90.5351522,-0.000106166667 90.2369055,-0.000106166667 89.9433955,-0.000106166667 L7.78665533,1.35525272e-20 Z"></path>
                        <path d="M6.89661117,31.9520833 C6.64778917,31.9520833 6.40497783,31.9488983 6.15810767,31.943345 C5.64669611,31.9366816 5.13647986,31.8921605 4.63164333,31.8101467 C4.16090875,31.7290747 3.70489347,31.578266 3.278639,31.362695 C2.85629306,31.1489102 2.47107961,30.8685895 2.13775567,30.5324717 C1.79960693,30.2003131 1.51808267,29.8150659 1.30433917,29.3919967 C1.0882404,28.9661778 0.938687186,28.5097513 0.860889167,28.0386167 C0.776874059,27.5323771 0.731418405,27.0204892 0.724914167,26.5073667 C0.7197365,26.3351317 0.712958167,25.7616683 0.712958167,25.7616683 L0.712958167,6.896211 C0.712958167,6.896211 0.7201775,6.3315595 0.724955,6.16567 C0.731182758,5.65336034 0.776374087,5.1422667 0.860137833,4.63681283 C0.938079457,4.16438757 1.08774845,3.70664491 1.3039635,3.27943117 C1.51692144,2.85665414 1.79688274,2.47111924 2.1329945,2.137772 C2.46872848,1.80125749 2.85517415,1.51949336 3.27823883,1.30275483 C3.70351364,1.08787644 4.15866711,0.938131579 4.62845017,0.858537167 C5.13494466,0.775699513 5.64693218,0.730913469 6.16011667,0.724554833 L6.89701133,0.714583333 L90.8246605,0.714583333 L91.5703588,0.724955 C92.0788753,0.730997678 92.586212,0.775384171 93.0880522,0.857736833 C93.562591,0.938329639 94.0224879,1.08911935 94.4526205,1.30514767 C95.3001723,1.74193861 95.9898089,2.43298307 96.4248705,3.28142383 C96.6376345,3.70568834 96.7849949,4.15969718 96.8619505,4.62804183 C96.9467117,5.13764296 96.99415,5.65275298 97.0038872,6.16926333 C97.0062555,6.40054333 97.0062555,6.64897333 97.0062555,6.896211 C97.0127072,7.202461 97.0127072,7.49395383 97.0127072,7.7878395 L97.0127072,24.8795867 C97.0127072,25.1762817 97.0127072,25.46579 97.0062555,25.7576667 C97.0062555,26.0232467 97.0062555,26.2665317 97.0030705,26.5169217 C96.9935441,27.0242151 96.9468967,27.5301308 96.8635022,28.0306133 C96.7872988,28.5051466 96.6385598,28.9651357 96.4225022,29.3944467 C96.2072477,29.8129239 95.9273401,30.1948341 95.5930955,30.5261017 C95.2594717,30.8640258 94.8735784,31.1459865 94.4502522,31.3611433 C94.0213111,31.5783715 93.5620911,31.7297379 93.0880522,31.8101467 C92.5832538,31.8925981 92.0729886,31.9371221 91.5615388,31.943345 C91.3223372,31.9488983 91.0718655,31.9520833 90.8286622,31.9520833 L89.9433955,31.9537167 L6.89661117,31.9520833 Z" fill="#444444"></path>
                    </g>
                    <g id="_Group_" transform="translate(7.350000, 6.533333)" fill="#FFFFFF" fill-rule="nonzero">
                        <g id="_Group_2">
                            <g id="_Group_3">
                                <path d="M12.8779187,10.0455553 C12.8957685,8.66010411 13.6221004,7.38036866 14.8024427,6.65470633 C14.0544353,5.58641876 12.8464868,4.93338399 11.5429953,4.892601 C10.171616,4.74865533 8.8421235,5.71321217 8.14329367,5.71321217 C7.43093983,5.71321217 6.3549815,4.90689267 5.196352,4.93073117 C3.6718977,4.97998304 2.28514536,5.82571247 1.54346733,7.15849167 C-0.035966,9.89303467 1.14214917,13.9118922 2.655114,16.1222903 C3.41208233,17.2046595 4.296761,18.4136937 5.45434517,18.3708187 C6.58711083,18.3238358 7.01017683,17.6484933 8.37752183,17.6484933 C9.73217583,17.6484933 10.1291003,18.3708187 11.3101718,18.3435583 C12.5256822,18.3238277 13.2915113,17.256379 14.0219217,16.1637607 C14.5658022,15.3925331 14.9843173,14.5401587 15.2619647,13.6382108 C13.8183075,13.0276147 12.8796036,11.613028 12.8779187,10.0455553 Z" id="_Path_"></path>
                                <path d="M10.6470875,3.4388935 C11.3098342,2.64329022 11.6363444,1.620677 11.5572788,0.5882205 C10.5447492,0.694567231 9.6094555,1.17849057 8.93775517,1.94356867 C8.27448196,2.69842104 7.93846928,3.68597002 8.00372533,4.68870383 C9.02983175,4.69926886 10.0040981,4.23862513 10.6470875,3.4388935 Z" id="_Path_2"></path>
                            </g>
                        </g>
                        <g id="Group" transform="translate(20.416667, 7.350000)">
                            <path d="M6.78018717,8.28071417 L2.91457717,8.28071417 L1.98625583,11.021815 L0.348937167,11.021815 L4.0103805,0.880448333 L5.71149717,0.880448333 L9.3729405,11.021815 L7.7077,11.021815 L6.78018717,8.28071417 Z M3.31493167,7.01583633 L6.379065,7.01583633 L4.86855017,2.5672325 L4.8262795,2.5672325 L3.31493167,7.01583633 Z" id="Shape"></path>
                            <path d="M17.2804135,7.3252795 C17.2804135,9.62295483 16.0506278,11.0991697 14.1947855,11.0991697 C13.2355168,11.1493494 12.3319381,10.6469084 11.8684043,9.80556967 L11.8332877,9.80556967 L11.8332877,13.4678133 L10.3155943,13.4678133 L10.3155943,3.62794367 L11.7846633,3.62794367 L11.7846633,4.85772933 L11.812577,4.85772933 C12.2967038,4.02166513 13.2012568,3.51944038 14.1668718,3.55058083 C16.0434167,3.550589 17.2804135,5.03398233 17.2804135,7.3252795 Z M15.7204495,7.3252795 C15.7204495,5.8283295 14.9468457,4.84417267 13.7665092,4.84417267 C12.6069078,4.84417267 11.8269258,5.8490565 11.8269258,7.3252795 C11.8269258,8.81505917 12.6069078,9.8127645 13.7665092,9.8127645 C14.9468538,9.8127645 15.7204495,8.83579433 15.7204495,7.3252795 Z" id="Shape"></path>
                            <path d="M25.4183662,7.3252795 C25.4183662,9.62295483 24.1885805,11.0991697 22.3327382,11.0991697 C21.3734695,11.1493494 20.4698908,10.6469084 20.006357,9.80556967 L19.9712403,9.80556967 L19.9712403,13.4678133 L18.453547,13.4678133 L18.453547,3.62794367 L19.9225833,3.62794367 L19.9225833,4.85772933 L19.950497,4.85772933 C20.4346273,4.02166564 21.3391838,3.51944384 22.3048,3.550589 C24.181402,3.550589 25.4183662,5.03398233 25.4183662,7.3252795 Z M23.8584022,7.3252795 C23.8584022,5.8283295 23.0847983,4.84417267 21.9044618,4.84417267 C20.7448605,4.84417267 19.9648785,5.8490565 19.9648785,7.3252795 C19.9648785,8.81505917 20.7448605,9.8127645 21.9044618,9.8127645 C23.0848065,9.8127645 23.8584103,8.83579433 23.8584103,7.3252795 L23.8584022,7.3252795 Z" id="Shape"></path>
                            <path d="M30.7968838,8.19617283 C30.9093388,9.201857 31.8863172,9.86217283 33.221363,9.86217283 C34.5005978,9.86217283 35.4209403,9.20182433 35.4209403,8.29503033 C35.4209403,7.50786983 34.8658602,7.036547 33.5515413,6.713539 L32.2372225,6.39691733 C30.375002,5.94711367 29.5104787,5.07621217 29.5104787,3.662995 C29.5104787,1.91322133 31.0353505,0.711349333 33.2006278,0.711349333 C35.3435612,0.711349333 36.812622,1.91322133 36.8620712,3.662995 L35.3300045,3.662995 C35.2382928,2.65093267 34.4016832,2.04003333 33.179076,2.04003333 C31.9564688,2.04003333 31.1198673,2.65811933 31.1198673,3.55772667 C31.1198673,4.27470283 31.6542123,4.69659283 32.9613527,5.01956 L34.0786833,5.293911 C36.1594275,5.78598533 37.0239508,6.621811 37.0239508,8.105188 C37.0239508,10.0025007 35.5126357,11.190816 33.1088917,11.190816 C30.8598652,11.190816 29.3413797,10.0304143 29.2432817,8.19609933 L30.7968838,8.19617283 Z" id="Shape"></path>
                            <path d="M40.2994048,1.87817 L40.2994048,3.62794367 L41.7054435,3.62794367 L41.7054435,4.82981567 L40.2994048,4.82981567 L40.2994048,8.9059705 C40.2994048,9.53920567 40.5809343,9.83429183 41.1990122,9.83429183 C41.3659318,9.83138119 41.5325814,9.81965932 41.698265,9.79917517 L41.698265,10.9938687 C41.4203765,11.045792 41.1379262,11.0693078 40.8552772,11.064053 C39.3583272,11.064053 38.774533,10.5017943 38.774533,9.067842 L38.774533,4.82981567 L37.699473,4.82981567 L37.699473,3.62794367 L38.7745167,3.62794367 L38.7745167,1.87817 L40.2994048,1.87817 Z" id="Shape"></path>
                            <path d="M42.51975,7.3252795 C42.51975,4.99889833 43.8898962,3.53703233 46.0264758,3.53703233 C48.1702258,3.53703233 49.5339938,4.99886567 49.5339938,7.3252795 C49.5339938,9.658047 48.1774043,11.1135267 46.0264758,11.1135267 C43.8763068,11.1135267 42.51975,9.65803883 42.51975,7.3252795 Z M47.9875865,7.3252795 C47.9875865,5.72943117 47.2562533,4.78755317 46.0264677,4.78755317 C44.796682,4.78755317 44.0661492,5.73660967 44.0661492,7.3252795 C44.0661492,8.927506 44.796682,9.86221367 46.0264677,9.86221367 C47.2562533,9.86221367 47.9875538,8.927506 47.9875538,7.3252795 L47.9875865,7.3252795 Z" id="Shape"></path>
                            <path d="M50.7852823,3.62794367 L52.2327913,3.62794367 L52.2327913,4.886427 L52.267908,4.886427 C52.4697684,4.0762842 53.2120829,3.51871577 54.0463875,3.55057267 C54.2212881,3.54996199 54.3957062,3.56895644 54.5663755,3.60720033 L54.5663755,5.02679567 C54.3455741,4.95932538 54.1152404,4.92834755 53.8844588,4.935084 C53.4382715,4.91698294 53.0064612,5.09480336 52.7024085,5.42185488 C52.3983558,5.74890639 52.2524375,6.19251444 52.3029675,6.63620067 L52.3029675,11.0217987 L50.7852742,11.0217987 L50.7852823,3.62794367 Z" id="Shape"></path>
                            <path d="M61.563845,8.85014317 C61.3596783,10.1923757 60.0525298,11.1135185 58.380119,11.1135185 C56.2291905,11.1135185 54.8941365,9.67238767 54.8941365,7.3603635 C54.8941365,5.04116083 56.236369,3.53702417 58.316321,3.53702417 C60.361973,3.53702417 61.6483863,4.9422625 61.6483863,7.1841105 L61.6483863,7.7040985 L56.4261868,7.7040985 L56.4261868,7.79581017 C56.3774297,8.34626933 56.5675041,8.89114755 56.9480613,9.29184544 C57.3286184,9.69254334 57.8629791,9.91044052 58.4152193,9.890111 C59.1517238,9.95911901 59.8461035,9.53619843 60.1227223,8.850135 L61.563845,8.85014317 Z M56.4333448,6.6433955 L60.1298927,6.64338733 C60.1574351,6.14876295 59.9773855,5.66507219 59.6331225,5.3088491 C59.2888596,4.95262601 58.8115973,4.756169 58.316321,4.76680983 C57.8171268,4.76383082 57.3374241,4.96037995 56.9838358,5.31277048 C56.6302476,5.66516102 56.432072,6.14419405 56.4333448,6.6433955 Z" id="Shape"></path>
                        </g>
                    </g>
                </g>
                <g id="_Group_4" transform="translate(28.583333, 6.533333)" fill="#FFFFFF" fill-rule="nonzero">
                    <g id="Group">
                        <path d="M2.30805517,0.596983333 C2.95236152,0.550747081 3.58344535,0.7958804 4.02760505,1.26491198 C4.47176476,1.73394357 4.68218346,2.37743491 4.60094483,3.01826933 C4.60094483,4.57504017 3.75955767,5.46990267 2.30805517,5.46990267 L0.547918,5.46990267 L0.547918,0.596983333 L2.30805517,0.596983333 Z M1.30476383,4.78076667 L2.22351383,4.78076667 C2.68396842,4.80828997 3.13231399,4.62687319 3.44406179,4.28688896 C3.75580958,3.94690474 3.89777001,3.48454877 3.830526,3.0282 C3.8928777,2.57374504 3.74887288,2.11520441 3.43789805,1.77799275 C3.12692321,1.44078109 2.68152146,1.26018714 2.22351383,1.28560483 L1.30476383,1.28560483 L1.30476383,4.78076667 Z" id="Shape"></path>
                        <path d="M5.45588867,3.62954433 C5.39283149,2.97040046 5.70889499,2.33249141 6.27152301,1.98335452 C6.83415102,1.63421762 7.54606681,1.63421762 8.10869483,1.98335452 C8.67132284,2.33249141 8.98738635,2.97040046 8.92432917,3.62954433 C8.98858609,4.28939651 8.67281107,4.92854281 8.10968419,5.27843133 C7.54655732,5.62831985 6.83366052,5.62831985 6.27053364,5.27843133 C5.70740676,4.92854281 5.39163175,4.28939651 5.45588867,3.62954433 Z M8.17783867,3.62954433 C8.17783867,2.8324205 7.81974667,2.36626717 7.19130533,2.36626717 C6.560463,2.36626717 6.20558867,2.8324205 6.20558867,3.6295525 C6.20558867,4.43306267 6.5604875,4.89562267 7.19130533,4.89562267 C7.819763,4.8956145 8.17784683,4.42986133 8.17784683,3.62954433 L8.17783867,3.62954433 Z" id="Shape"></path>
                        <polygon id="Shape" points="13.534829 5.46982917 12.7819685 5.46982917 12.0219295 2.76142767 11.9645097 2.76142767 11.2076557 5.46982917 10.4619655 5.46982917 9.44831067 1.79243633 10.1844295 1.79243633 10.8431855 4.598503 10.8974203 4.598503 11.653474 1.79243633 12.349715 1.79243633 13.1057687 4.598503 13.1631885 4.598503 13.8187513 1.79243633 14.5444985 1.79243633"></polygon>
                        <path d="M15.3970577,1.79243633 L16.0956833,1.79243633 L16.0956833,2.3766225 L16.1499182,2.3766225 C16.338515,1.94650698 16.7792112,1.6834011 17.247314,1.72145167 C17.6097644,1.69420095 17.9649401,1.83324509 18.2125575,2.09932502 C18.4601748,2.36540496 18.5733627,2.72964607 18.5201625,3.089205 L18.5201625,5.46978833 L17.7944153,5.46978833 L17.7944153,3.27145233 C17.7944153,2.68048783 17.5376145,2.386594 17.0008767,2.386594 C16.7550321,2.37514361 16.5164465,2.47162743 16.3476696,2.65075037 C16.1788927,2.82987331 16.0967573,3.07377083 16.1227967,3.3185005 L16.1227967,5.46982917 L15.3970495,5.46982917 L15.3970577,1.79243633 Z" id="Shape"></path>
                        <polygon id="Shape" points="19.6765788 0.356883333 20.402326 0.356883333 20.402326 5.469821 19.6765788 5.469821"></polygon>
                        <path d="M21.4111952,3.62954433 C21.3481864,2.97035734 21.6642998,2.33243215 22.2269695,1.98328987 C22.7896393,1.63414758 23.5015917,1.63414758 24.0642615,1.98328987 C24.6269312,2.33243215 24.9430446,2.97035734 24.8800358,3.62954433 C24.9442111,4.28942014 24.6283783,4.92854837 24.0652234,5.27842148 C23.5020686,5.62829459 22.7891624,5.62829459 22.2260076,5.27842148 C21.6628527,4.92854837 21.3470199,4.28942014 21.4111952,3.62954433 Z M24.1331452,3.62954433 C24.1331452,2.8324205 23.7750532,2.36626717 23.1466118,2.36626717 C22.5157695,2.36626717 22.1608952,2.8324205 22.1608952,3.6295525 C22.1608952,4.43306267 22.515794,4.89562267 23.1466118,4.89562267 C23.7750613,4.8956145 24.1331533,4.42986133 24.1331533,3.62954433 L24.1331452,3.62954433 Z" id="Shape"></path>
                        <path d="M25.6440683,4.42986133 C25.6440683,3.76791217 26.136943,3.38630017 27.0118217,3.33206533 L28.0079345,3.2746455 L28.0079345,2.95723167 C28.0079345,2.56883317 27.7511337,2.34951733 27.255074,2.34951733 C26.8499338,2.34951733 26.5692047,2.49825683 26.4886487,2.75825083 L25.7860295,2.75825083 C25.8601992,2.12660817 26.4543568,1.721468 27.2885655,1.721468 C28.2105087,1.721468 28.7304967,2.18043467 28.7304967,2.95723167 L28.7304967,5.46983733 L28.0318628,5.46983733 L28.0318628,4.9530425 L27.974443,4.9530425 C27.7371594,5.33044567 27.3151918,5.55101664 26.8698687,5.53042583 C26.5576865,5.56289798 26.2463364,5.46179371 26.0127899,5.25210783 C25.7792434,5.04242195 25.6452983,4.74372537 25.6440683,4.42986133 Z M28.0079345,4.1156325 L28.0079345,3.80819017 L27.1099197,3.86561 C26.6034883,3.89950167 26.3738008,4.07176933 26.3738008,4.3959615 C26.3738008,4.726932 26.6609082,4.91953467 27.0557175,4.91953467 C27.2894361,4.94319339 27.5227499,4.87098796 27.7022483,4.71944773 C27.8817468,4.5679075 27.9920598,4.35000853 28.0079345,4.1156325 Z" id="Shape"></path>
                        <path d="M29.6843307,3.62954433 C29.6843307,2.46755017 30.2816815,1.73143133 31.210795,1.73143133 C31.679951,1.70981428 32.1193592,1.96120284 32.3384973,2.376598 L32.3927322,2.376598 L32.3927322,0.356883333 L33.1184793,0.356883333 L33.1184793,5.469821 L32.4230387,5.469821 L32.4230387,4.88881983 L32.3656188,4.88881983 C32.1299159,5.30076854 31.6850942,5.54790779 31.2108032,5.53042583 C30.2753033,5.53046667 29.6843307,4.7943315 29.6843307,3.62954433 Z M30.4340307,3.62954433 C30.4340307,4.40952633 30.801694,4.87887283 31.4165868,4.87887283 C32.0282702,4.87887283 32.4063133,4.40275617 32.4063133,3.6327375 C32.4063133,2.86631217 32.0243012,2.383409 31.4165868,2.383409 C30.8056548,2.383409 30.4340062,2.8559405 30.4340062,3.62954433 L30.4340307,3.62954433 Z" id="Shape"></path>
                        <path d="M36.1211667,3.62954433 C36.0581095,2.97040046 36.374173,2.33249141 36.936801,1.98335452 C37.499429,1.63421762 38.2113448,1.63421762 38.7739728,1.98335452 C39.3366008,2.33249141 39.6526643,2.97040046 39.5896072,3.62954433 C39.6538641,4.28939651 39.3380891,4.92854281 38.7749622,5.27843133 C38.2118353,5.62831985 37.4989385,5.62831985 36.9358116,5.27843133 C36.3726848,4.92854281 36.0569097,4.28939651 36.1211667,3.62954433 Z M38.8431167,3.62954433 C38.8431167,2.8324205 38.4850247,2.36626717 37.8565833,2.36626717 C37.225741,2.36626717 36.8708667,2.8324205 36.8708667,3.6295525 C36.8708667,4.43306267 37.2257655,4.89562267 37.8565833,4.89562267 C38.4850328,4.8956145 38.8431167,4.42986133 38.8431167,3.62954433 Z" id="Shape"></path>
                        <path d="M40.5633842,1.79243633 L41.262018,1.79243633 L41.262018,2.3766225 L41.3162528,2.3766225 C41.5048496,1.94650698 41.9455458,1.6834011 42.4136487,1.72145167 C42.7760991,1.69420095 43.1312748,1.83324509 43.3788921,2.09932502 C43.6265095,2.36540496 43.7396973,2.72964607 43.6864972,3.089205 L43.6864972,5.46978833 L42.96075,5.46978833 L42.96075,3.27145233 C42.96075,2.68048783 42.7039492,2.386594 42.1672113,2.386594 C41.9213668,2.37514361 41.6827811,2.47162743 41.5140043,2.65075037 C41.3452274,2.82987331 41.2630919,3.07377083 41.2891313,3.3185005 L41.2891313,5.46982917 L40.5633842,5.46982917 L40.5633842,1.79243633 Z" id="Shape"></path>
                        <path d="M47.7873807,0.8768795 L47.7873807,1.80918617 L48.5841125,1.80918617 L48.5841125,2.42049383 L47.7873807,2.42049383 L47.7873807,4.31142833 C47.7873807,4.69663367 47.9460917,4.865308 48.3073687,4.865308 C48.3998607,4.86501199 48.4922599,4.85941956 48.5841125,4.84855817 L48.5841125,5.45307933 C48.4537803,5.47639575 48.3217303,5.48880037 48.1893358,5.49016417 C47.3822405,5.49016417 47.0608332,5.20624183 47.0608332,4.4972445 L47.0608332,2.42046117 L46.4770472,2.42046117 L46.4770472,1.8091535 L47.0608332,1.8091535 L47.0608332,0.8768795 L47.7873807,0.8768795 Z" id="Shape"></path>
                        <path d="M49.5754315,0.356883333 L50.2948005,0.356883333 L50.2948005,2.38340083 L50.3522203,2.38340083 C50.5498763,1.94952099 50.9982854,1.68607983 51.4735037,1.72464483 C51.8338959,1.70503445 52.1842636,1.8471397 52.4291746,2.11225431 C52.6740855,2.37736893 52.7880307,2.7378796 52.739974,3.09559133 L52.739974,5.46982917 L52.0135,5.46982917 L52.0135,3.27462917 C52.0135,2.68724983 51.7399167,2.38977083 51.2271398,2.38977083 C50.9746502,2.36906316 50.7258936,2.46085428 50.5473729,2.64060469 C50.3688522,2.8203551 50.2787709,3.06973592 50.3012113,3.3220775 L50.3012113,5.46981283 L49.5754642,5.46981283 L49.5754315,0.356883333 Z" id="Shape"></path>
                        <path d="M56.9716875,4.4769095 C56.7681799,5.17056941 56.0969141,5.61875081 55.378232,5.54080567 C54.8878759,5.55374999 54.4166163,5.3504984 54.0894897,4.98497838 C53.7623631,4.61945836 53.6124406,4.12862235 53.6795,3.64270083 C53.6142217,3.15542889 53.7635826,2.66380638 54.0888875,2.29519835 C54.4141925,1.92659031 54.8834316,1.71726768 55.3750388,1.72145983 C56.398265,1.72145983 57.0155507,2.4205265 57.0155507,3.57529317 L57.0155507,3.82853333 L54.4188038,3.82853333 L54.4188038,3.86920333 C54.3958245,4.14208445 54.4890214,4.411999 54.6754746,4.61256657 C54.8619279,4.81313415 55.1243368,4.92574454 55.3981668,4.92270333 C55.7532305,4.96532899 56.0988607,4.78920532 56.2730537,4.476885 L56.9716875,4.4769095 Z M54.4187875,3.29178733 L56.2762223,3.29178733 C56.2947222,3.04221436 56.2069677,2.79643414 56.0345845,2.61501493 C55.8622012,2.43359571 55.621221,2.33340958 55.371029,2.33914567 C55.1174475,2.33595978 54.8733262,2.43531734 54.694042,2.61467992 C54.5147579,2.7940425 54.4155071,3.03820722 54.4188038,3.29178733 L54.4187875,3.29178733 Z" id="Shape"></path>
                    </g>
                </g>
            </g>
        </g>
    </g>
</svg>