<?xml version="1.0" encoding="UTF-8"?>
<svg width="228px" height="33px" viewBox="0 0 228 33" version="1.1" xmlns="http://www.w3.org/2000/svg" xmlns:xlink="http://www.w3.org/1999/xlink">
    <!-- Generator: Sketch 50.2 (55047) - http://www.bohemiancoding.com/sketch -->
    <title>Group</title>
    <desc>Created with Sketch.</desc>
    <defs>
        <polygon id="path-1" points="0.292722222 0.471166667 152.253444 0.471166667 152.253444 32.9633333 0.292722222 32.9633333"></polygon>
        <polygon id="path-3" points="0.278055556 0.471166667 120.000833 0.471166667 120.000833 32.9633333 0.278055556 32.9633333"></polygon>
    </defs>
    <g id="Page-1" stroke="none" stroke-width="1" fill="none" fill-rule="evenodd">
        <g id="Amazon-Page" transform="translate(-849.000000, -1936.000000)">
            <g id="Group-2" transform="translate(115.000000, 1744.000000)">
                <g id="Group" transform="translate(734.000000, 192.000000)">
                    <polygon id="Fill-1" fill="#D61C6C" points="0 32.6143889 8.48772222 32.6143889 8.48772222 0.856777778 0 0.856777778"></polygon>
                    <polyline id="Fill-2" fill="#D61C6C" points="30.1809444 15.5582778 21.6088889 0.856777778 12.694 0.856777778 12.694 32.6143889 20.7502778 32.6143889 20.7502778 16.1143889 20.8792222 16.1168333 30.6081111 32.6143889 38.4071111 32.6143889 38.4071111 0.856777778 30.3086667 0.856777778 30.3086667 15.5582778 30.1809444 15.5582778"></polyline>
                    <path d="M59.5283333,16.7566667 C59.5283333,24.7726111 57.2574444,25.2835 54.0857778,25.2835 L51.1267778,25.2835 L51.1267778,8.57205556 L53.7411111,8.57205556 C57.343,8.57205556 59.5283333,8.78594444 59.5283333,16.7566667 Z M42.6433333,0.856777778 L42.6433333,32.6143889 L53.3139444,32.6143889 C63.3850556,32.6143889 68.1413333,30.0856111 68.1413333,16.7151111 C68.1413333,3.60066667 63.3001111,0.856777778 53.1862222,0.856777778 L42.6433333,0.856777778 Z" id="Fill-3" fill="#D61C6C"></path>
                    <g id="Group-8" transform="translate(70.888889, 0.000000)">
                        <mask id="mask-2" fill="white">
                            <use xlink:href="#path-1"></use>
                        </mask>
                        <g id="Clip-5"></g>
                        <polygon id="Fill-4" fill="#D61C6C" mask="url(#mask-2)" points="0.292722222 32.6143889 8.778 32.6143889 8.778 0.856777778 0.292722222 0.856777778"></polygon>
                        <path d="M78.8871111,25.4998333 C74.2163889,25.4998333 73.5728889,22.2841667 73.5728889,17.0573333 C73.5728889,11.8714444 74.2163889,8.657 78.8871111,8.657 C83.5168889,8.657 84.1591667,11.8714444 84.1591667,17.0573333 C84.1591667,22.2841667 83.5168889,25.4998333 78.8871111,25.4998333 Z M78.8871111,0.471166667 C67.0596667,0.471166667 64.9592778,8.22738889 64.9592778,16.7566667 C64.9592778,25.2431667 67.0596667,33 78.8871111,33 C90.6736111,33 92.774,25.2431667 92.774,16.7566667 C92.774,8.22738889 90.7151667,0.471166667 78.8871111,0.471166667 Z" id="Fill-6" fill="#D61C6C" mask="url(#mask-2)"></path>
                        <path d="M138.370222,25.4998333 C133.698278,25.4998333 133.053556,22.2841667 133.053556,17.0573333 C133.053556,11.8714444 133.698278,8.657 138.370222,8.657 C142.995111,8.657 143.639833,11.8714444 143.639833,17.0573333 C143.639833,22.2841667 142.995111,25.4998333 138.370222,25.4998333 Z M138.370222,0.471166667 C126.540333,0.471166667 124.438722,8.22738889 124.438722,16.7566667 C124.438722,25.2431667 126.540333,33 138.370222,33 C150.154278,33 152.253444,25.2431667 152.253444,16.7566667 C152.253444,8.22738889 150.197056,0.471166667 138.370222,0.471166667 Z" id="Fill-7" fill="#D61C6C" mask="url(#mask-2)"></path>
                    </g>
                    <path d="M225.8795,32.0668333 C224.612056,32.0668333 224.320556,31.1715556 224.320556,30.0055556 C224.320556,28.8322222 224.612056,27.9381667 225.8795,27.9381667 C227.148167,27.9381667 227.445167,28.8322222 227.445167,30.0055556 C227.445167,31.1715556 227.148167,32.0668333 225.8795,32.0668333 Z M225.8795,27.5898333 C224.331556,27.5898333 223.952056,28.6354444 223.952056,30.0055556 C223.952056,31.3683333 224.331556,32.4078333 225.8795,32.4078333 C227.420111,32.4078333 227.814278,31.3683333 227.814278,30.0055556 C227.814278,28.6354444 227.420111,27.5898333 225.8795,27.5898333 Z" id="Fill-9" fill="#D61C6C"></path>
                    <g id="Group-14" transform="translate(106.944444, 0.000000)">
                        <mask id="mask-4" fill="white">
                            <use xlink:href="#path-3"></use>
                        </mask>
                        <g id="Clip-11"></g>
                        <path d="M119.043833,29.9365 L118.560444,29.9365 L118.560444,29.0675 L119.043833,29.0675 C119.328611,29.0675 119.424556,29.1878889 119.424556,29.5044444 C119.424556,29.8155 119.328611,29.9365 119.043833,29.9365 Z M120.000833,29.4598333 C120.000833,28.8835556 119.810778,28.5529444 119.068889,28.5529444 L117.970722,28.5529444 L117.970722,31.4257778 L118.560444,31.4257778 L118.560444,30.4113333 L118.935056,30.4113333 L119.378722,31.4257778 L119.981889,31.4257778 L119.499722,30.3538889 C119.885944,30.2273889 120.000833,29.9102222 120.000833,29.4598333 Z" id="Fill-10" fill="#D61C6C" mask="url(#mask-4)"></path>
                        <path d="M12.6316667,20.3591667 L18.1066111,20.3591667 L18.1066111,20.9140556 C18.1066111,24.4230556 18.216,25.971 14.036,25.971 C10.1358889,25.971 8.80611111,24.1712778 8.80611111,17.0145556 C8.80611111,9.55655556 11.0342222,8.657 14.3776111,8.657 C16.8617778,8.657 18.6205556,9.29927778 20.0780556,10.1151111 L24.6210556,3.04211111 C22.2193889,1.49905556 18.7055,0.471166667 14.7632222,0.471166667 C3.79316667,0.471166667 0.278055556,5.74322222 0.278055556,16.7566667 C0.278055556,26.3566111 2.849,33 13.2629444,33 C15.1078889,33 16.6931111,32.8735 18.0589444,32.6143889 L25.8634444,32.6143889 L25.8634444,13.4572778 L13.5685,13.4572778 L12.6316667,20.3591667" id="Fill-12" fill="#D61C6C" mask="url(#mask-4)"></path>
                        <path d="M72.1123333,20.3591667 L77.5872778,20.3591667 L77.5872778,20.9140556 C77.5872778,24.4230556 77.6966667,25.971 73.5172778,25.971 C69.6165556,25.971 68.2867778,24.1712778 68.2867778,17.0145556 C68.2867778,9.55655556 70.5148889,8.657 73.8582778,8.657 C76.3424444,8.657 78.1012222,9.29927778 79.5587222,10.1151111 L84.1017222,3.04211111 C81.7000556,1.49905556 78.1861667,0.471166667 74.2438889,0.471166667 C63.2738333,0.471166667 59.7587222,5.74322222 59.7587222,16.7566667 C59.7587222,26.3566111 62.3296667,33 72.7436111,33 C74.5885556,33 76.1737778,32.8735 77.5396111,32.6143889 L85.3441111,32.6143889 L85.3441111,13.4572778 L73.0491667,13.4572778 L72.1123333,20.3591667" id="Fill-13" fill="#D61C6C" mask="url(#mask-4)"></path>
                    </g>
                    <polyline id="Fill-15" fill="#D61C6C" points="104.988278 8.61361111 104.988278 0.856777778 83.9025 0.856777778 83.9025 32.6143889 104.988278 32.6143889 104.988278 25.0726667 92.2185 25.0726667 92.2185 20.3139444 100.605389 20.3139444 101.629611 12.7722222 92.2185 12.7722222 92.2185 8.61361111 104.988278 8.61361111"></polyline>
                </g>
            </g>
        </g>
    </g>
</svg>