<?xml version="1.0" encoding="UTF-8"?>
<svg width="98px" height="33px" viewBox="0 0 98 33" version="1.1" xmlns="http://www.w3.org/2000/svg" xmlns:xlink="http://www.w3.org/1999/xlink">
    <!-- Generator: Sketch 50.2 (55047) - http://www.bohemiancoding.com/sketch -->
    <title>29664533_152933252205413_356844063548243968_n</title>
    <desc>Created with Sketch.</desc>
    <defs>
        <linearGradient x1="91.488428%" y1="4.9481245%" x2="-38.3517333%" y2="71.9074222%" id="linearGradient-1">
            <stop stop-color="#00A0FF" offset="0%"></stop>
            <stop stop-color="#00A1FF" offset="1%"></stop>
            <stop stop-color="#00BEFF" offset="26%"></stop>
            <stop stop-color="#00D2FF" offset="51%"></stop>
            <stop stop-color="#00DFFF" offset="76%"></stop>
            <stop stop-color="#00E3FF" offset="100%"></stop>
        </linearGradient>
        <linearGradient x1="107.684729%" y1="50%" x2="-130.640394%" y2="50%" id="linearGradient-2">
            <stop stop-color="#FFE000" offset="0%"></stop>
            <stop stop-color="#FFBD00" offset="41%"></stop>
            <stop stop-color="#FFA500" offset="78%"></stop>
            <stop stop-color="#FF9C00" offset="100%"></stop>
        </linearGradient>
        <linearGradient x1="86.219293%" y1="17.8768889%" x2="-50.1497903%" y2="194.702638%" id="linearGradient-3">
            <stop stop-color="#FF3A44" offset="0%"></stop>
            <stop stop-color="#C31162" offset="100%"></stop>
        </linearGradient>
        <linearGradient x1="-18.7537448%" y1="-54.0521474%" x2="42.1210306%" y2="24.9170664%" id="linearGradient-4">
            <stop stop-color="#32A071" offset="0%"></stop>
            <stop stop-color="#2DA771" offset="7%"></stop>
            <stop stop-color="#15CF74" offset="48%"></stop>
            <stop stop-color="#06E775" offset="80%"></stop>
            <stop stop-color="#00F076" offset="100%"></stop>
        </linearGradient>
    </defs>
    <g id="Symbols" stroke="none" stroke-width="1" fill="none" fill-rule="evenodd">
        <g id="button-/-google">
            <g id="29664533_152933252205413_356844063548243968_n">
                <rect id="Rectangle-path" fill="#444444" x="0.367591903" y="0" width="97.2648162" height="33" rx="5"></rect>
                <path d="M93.894985,3.08807202 C95.5611966,3.08807202 96.911928,4.42875332 96.911928,6.08256752 L96.911928,27.4718211 C96.911928,29.1256353 95.5611966,30.4663166 93.894985,30.4663166 L4.10501501,30.4663166 C2.43880341,30.4663166 1.08807202,29.1256353 1.08807202,27.4718211 L1.08807202,6.08256752 C1.08807202,4.42875332 2.43880341,3.08807202 4.10501501,3.08807202 L93.894985,3.08807202 Z M94.0300075,2.3675919 L3.9699925,2.3675919 C1.98044158,2.3675919 0.367591903,3.98044158 0.367591903,5.9699925 L0.367591903,27.5843961 C0.367591903,29.573947 1.98044158,31.1867967 3.9699925,31.1867967 L94.0300075,31.1867967 C96.0195585,31.1867967 97.6324082,29.573947 97.6324082,27.5843961 L97.6324082,5.9699925 C97.6324082,3.98044158 96.0195585,2.3675919 94.0300075,2.3675919 Z" id="Shape"></path>
                <path d="M34.5327592,9.7453083 C34.5575103,10.2793505 34.3621982,10.8001827 33.9923991,11.1862686 C33.5791675,11.6155329 33.002808,11.8486965 32.4073429,11.8274958 C31.4940192,11.8203478 30.6739745,11.2663976 30.3263742,10.4217762 C29.978774,9.57715488 30.1713583,8.60646158 30.8150818,7.9585176 C31.2333442,7.53150778 31.8097614,7.2967677 32.4073429,7.31008556 C32.7119313,7.30907069 33.0135086,7.37036684 33.2935334,7.49020557 C33.5542423,7.59536219 33.7863303,7.76078653 33.9707847,7.97292725 L33.5889302,8.35478174 C33.2973857,8.00799769 32.8597213,7.81852107 32.4073429,7.84324077 C31.9526114,7.84101013 31.5165984,8.02414444 31.1998441,8.35041493 C30.8830898,8.67668542 30.7129381,9.11792677 30.7286242,9.57239311 C30.7189711,10.2591474 31.1234304,10.8842718 31.7538193,11.156915 C32.3842083,11.4295582 33.1167222,11.2961747 33.6105446,10.8188237 C33.8322433,10.5785699 33.9601093,10.2665767 33.9707847,9.93983796 L32.4073429,9.93983796 L32.4073429,9.42109228 L34.5039399,9.42109228 C34.5231574,9.52809369 34.532802,9.63659485 34.5327592,9.7453083 Z M37.8325581,7.94410807 L35.8872618,7.94410807 L35.8872618,9.31302027 L37.659643,9.31302027 L37.659643,9.83176595 L35.8872618,9.83176595 L35.8872618,11.2006782 L37.8325581,11.2006782 L37.8325581,11.7338335 L35.3108777,11.7338335 L35.3108777,7.41095274 L37.8325581,7.41095274 L37.8325581,7.94410807 Z M40.195733,11.7338335 L39.6409632,11.7338335 L39.6409632,7.94410807 L38.4305566,7.94410807 L38.4305566,7.41095274 L41.4349587,7.41095274 L41.4349587,7.94410807 L40.195733,7.94410807 L40.195733,11.7338335 Z M43.5531703,11.7338335 L43.5531703,7.41095274 L44.1079399,7.41095274 L44.1079399,11.7338335 L43.5531703,11.7338335 Z M46.571982,11.7338335 L46.0172123,11.7338335 L46.0172123,7.94410807 L44.8068057,7.94410807 L44.8068057,7.41095274 L47.7751838,7.41095274 L47.7751838,7.94410807 L46.571982,7.94410807 L46.571982,11.7338335 Z M53.4021336,11.171859 C52.5253019,12.0438041 51.1088527,12.0438041 50.232021,11.171859 C49.3820482,10.2721478 49.3820482,8.86543364 50.232021,7.96572242 C50.6513393,7.54333855 51.2219,7.30578643 51.8170772,7.30578643 C52.4122545,7.30578643 52.9828153,7.54333855 53.4021336,7.96572242 C54.2557335,8.86398814 54.2557335,10.2735933 53.4021336,11.171859 Z M50.6426947,10.8116189 C51.2920806,11.4582967 52.3420738,11.4582967 52.9914599,10.8116189 C53.6292277,10.1085536 53.6292277,9.0362326 52.9914599,8.33316727 C52.3420738,7.68648954 51.2920806,7.68648954 50.6426947,8.33316727 C50.0049269,9.0362326 50.0049269,10.1085536 50.6426947,10.8116189 Z M54.8214794,11.7338335 L54.8214794,7.41095274 L55.4987306,7.41095274 L57.6025326,10.7755949 L57.6025326,7.41095274 L58.1573023,7.41095274 L58.1573023,11.7338335 L57.5809182,11.7338335 L55.3834539,8.21068562 L55.3834539,11.7338335 L54.8214794,11.7338335 Z" id="Shape" stroke="#FFFFFF" stroke-width="0.2" fill="#FFFFFF" fill-rule="nonzero"></path>
                <path d="M49.4611073,18.0380345 C47.7718876,18.0459838 46.4081981,19.4204062 46.4134914,21.1096363 C46.4187847,22.7988664 47.7910612,24.1647153 49.4802975,24.1620779 C51.1695338,24.1594406 52.5375387,22.7893134 52.5375574,21.100075 C52.5494259,20.2818789 52.2286383,19.4939157 51.6486688,18.9166627 C51.0686992,18.3394096 50.2792387,18.0223249 49.4611073,18.0380345 Z M49.4611073,22.9589137 C48.6997236,23.012161 47.9831669,22.5945766 47.6541585,21.9058867 C47.32515,21.2171967 47.4505613,20.3973784 47.9704093,19.8385417 C48.4902573,19.2797051 49.2988825,19.0954345 50.009528,19.3738645 C50.7201735,19.6522946 51.1883999,20.3368339 51.1902595,21.100075 C51.213706,21.577517 51.0433051,22.0441869 50.7177258,22.3941849 C50.3921463,22.7441828 49.938996,22.9478301 49.4611073,22.9589137 Z M42.7534374,18.0380345 C41.0632627,18.0420114 39.6959557,19.4146897 39.6986054,21.104867 C39.7012551,22.7950442 41.0728593,24.1634286 42.7630381,24.1621061 C44.453217,24.1607836 45.822678,22.7902543 45.8226826,21.100075 C45.8345511,20.2818789 45.5137636,19.4939157 44.933794,18.9166627 C44.3538244,18.3394096 43.5643639,18.0223249 42.7462326,18.0380345 L42.7534374,18.0380345 Z M42.7534374,22.9589137 C41.9916563,23.0151638 41.2730103,22.5996616 40.9416832,21.9114053 C40.6103562,21.2231489 40.7338039,20.4022623 41.2529031,19.8418958 C41.7720023,19.2815293 42.5810679,19.0957696 43.2926114,19.3735832 C44.0041549,19.6513968 44.4733109,20.3362228 44.4753849,21.100075 C44.4988313,21.577517 44.3284305,22.0441869 44.002851,22.3941849 C43.6772715,22.7441828 43.2241214,22.9478301 42.7462326,22.9589137 L42.7534374,22.9589137 Z M34.7633128,18.9818635 L34.7633128,20.2787276 L37.875787,20.2787276 C37.8269841,20.8895534 37.5730734,21.4659309 37.1553068,21.9142175 C36.5256236,22.5556067 35.6542177,22.901029 34.7561081,22.8652513 C32.8461391,22.8652513 31.2978035,21.3169156 31.2978035,19.4069468 C31.2978035,17.4969778 32.8461391,15.9486422 34.7561081,15.9486422 C35.6335056,15.9343326 36.480766,16.2685729 37.112078,16.8780616 L38.0270878,15.9630517 C37.166056,15.0911686 35.9886467,14.6051298 34.7633128,14.6157539 C33.0190022,14.5478696 31.3773398,15.4397467 30.4849967,16.9400639 C29.5926536,18.4403811 29.5926536,20.3086692 30.4849967,21.8089864 C31.3773398,23.3093036 33.0190022,24.2011806 34.7633128,24.1332964 C36.0110152,24.189677 37.2221247,23.7036569 38.0847262,22.8004082 C38.8395558,21.9710789 39.2425688,20.880877 39.2086752,19.759982 C39.211,19.4869116 39.1868714,19.2142578 39.1366272,18.9458394 L34.7633128,18.9818635 Z M67.408267,19.9905356 C67.0235881,18.8588127 65.9802234,18.082022 64.7857194,18.0380345 C63.9891303,18.0364771 63.2274254,18.3647056 62.6814704,18.9447829 C62.1355152,19.5248601 61.8540105,20.3050419 61.9037989,21.100075 C61.8861047,21.9137104 62.2000347,22.6995613 62.773456,23.2770591 C63.3468774,23.8545569 64.1304847,24.1740458 64.9442251,24.1621155 C65.9679253,24.1676336 66.9260089,23.6588209 67.4947247,22.8076129 L66.4500285,22.0871328 C66.1328343,22.6159235 65.5608525,22.9388606 64.9442251,22.9372993 C64.3055853,22.9616408 63.716989,22.5930538 63.4600361,22.00788 L67.5595678,20.3147517 L67.408267,19.9905356 Z M63.2294824,21.0136175 C63.1999801,20.5634357 63.3529191,20.1203265 63.6538211,19.7841838 C63.9547231,19.4480409 64.3782593,19.2471598 64.8289483,19.2268268 C65.3040111,19.1955231 65.7519311,19.4506673 65.9673068,19.8752588 L63.2294824,21.0136175 Z M59.9008642,23.9819955 L61.248162,23.9819955 L61.248162,14.975994 L59.9008642,14.975994 L59.9008642,23.9819955 Z M57.696195,18.7224906 L57.6457615,18.7224906 C57.2350604,18.263312 56.6479377,18.0012035 56.031886,18.0020105 C54.396502,18.0813149 53.1113025,19.4303477 53.1113025,21.0676534 C53.1113025,22.7049592 54.396502,24.0539919 56.031886,24.1332964 C56.6499347,24.1436883 57.2408631,23.879881 57.6457615,23.4128162 L57.6889903,23.4128162 L57.6889903,23.852309 C57.6889903,25.0266917 57.0621725,25.6535094 56.0535004,25.6535094 C55.3663806,25.6374264 54.7571608,25.2075563 54.5116729,24.5655844 L53.3372903,25.0555109 C53.7895224,26.1555478 54.864154,26.8710187 56.0535004,26.8639159 C57.6313518,26.8639159 58.9354208,25.9344966 58.9354208,23.672189 L58.9354208,18.2181546 L57.696195,18.2181546 L57.696195,18.7224906 Z M56.1543676,22.9589137 C55.1910047,22.8740122 54.4521442,22.0671719 54.4521442,21.100075 C54.4521442,20.1329782 55.1910047,19.3261378 56.1543676,19.2412363 C56.6198839,19.2651256 57.0560384,19.4759472 57.3639455,19.8259034 C57.6718527,20.1758596 57.8254297,20.6353054 57.7898575,21.100075 C57.829581,21.5669817 57.6764953,22.029805 57.3661938,22.3809357 C57.0558922,22.7320665 56.6154103,22.9409117 56.1471628,22.9589137 L56.1543676,22.9589137 Z M73.7196729,14.975994 L70.4991267,14.975994 L70.4991267,23.9819955 L71.8464246,23.9819955 L71.8464246,20.5669198 L73.7268777,20.5669198 C74.7735076,20.6421118 75.7744635,20.1263526 76.3206999,19.2304097 C76.8669363,18.3344667 76.8669363,17.208447 76.3206999,16.3125041 C75.7744635,15.4165611 74.7735076,14.9008019 73.7268777,14.975994 L73.7196729,14.975994 Z M73.7196729,19.2988748 L71.8392198,19.2988748 L71.8392198,16.2296294 L73.7484921,16.2296294 C74.6020094,16.2296294 75.293922,16.9215419 75.293922,17.7750593 C75.293922,18.6285766 74.6020094,19.3204891 73.7484921,19.3204891 L73.7196729,19.2988748 Z M82.0268087,18.0020105 C81.0244139,17.9420946 80.0820073,18.4826341 79.6276099,19.3781275 L80.8236069,19.8752588 C81.0645397,19.4312039 81.5448974,19.1712457 82.0484231,19.2124171 C82.3939135,19.1720663 82.7411313,19.2721954 83.0120857,19.4903137 C83.28304,19.7084318 83.4550154,20.0262533 83.4893833,20.3723901 L83.4893833,20.4660525 C83.0566576,20.2369392 82.5740798,20.1181508 82.0844471,20.1202221 C80.7947877,20.1202221 79.4907187,20.8407022 79.4907187,22.1447712 C79.5164309,22.7065359 79.7682767,23.2340143 80.1889585,23.6071999 C80.6096404,23.9803854 81.1633841,24.1675427 81.7242071,24.1260915 C82.4153125,24.1757204 83.0783991,23.8441771 83.4533593,23.2615154 L83.4965881,23.2615154 L83.4965881,23.9819955 L84.7934523,23.9819955 L84.7934523,20.5164861 C84.7934523,18.9386346 83.5974554,18.0236249 82.0628327,18.0236249 L82.0268087,18.0020105 Z M81.8610982,22.9372993 C81.4216054,22.9372993 80.8091972,22.7139505 80.8091972,22.1735904 C80.8091972,21.4531103 81.5729062,21.2153518 82.2501576,21.2153518 C82.678153,21.204791 83.1011389,21.3092934 83.4749738,21.5179535 C83.3818128,22.3244698 82.7087602,22.9391298 81.8971223,22.9589137 L81.8610982,22.9372993 Z M89.5198019,18.2181546 L87.9779745,22.1231568 L87.9347457,22.1231568 L86.3352798,18.2181546 L84.8943196,18.2181546 L87.2935183,23.6793939 L85.9246061,26.7126151 L87.3295423,26.7126151 L91.0184006,18.2181546 L89.5198019,18.2181546 Z M77.4085312,23.9819955 L78.755829,23.9819955 L78.755829,14.975994 L77.4085312,14.975994 L77.4085312,23.9819955 Z" id="Shape" fill="#FFFFFF" fill-rule="nonzero"></path>
                <path d="M7.88940431,7.80001206 C7.65457466,8.08179784 7.53604753,8.44253253 7.55798346,8.80868412 L7.55798346,24.7457044 C7.53604753,25.1118561 7.65457466,25.4725908 7.88940431,25.7543766 L7.93983796,25.8048102 L16.8665866,16.8852663 L16.8665866,16.6763271 L7.93983796,7.74957841 L7.88940431,7.80001206 Z" id="Shape" fill="url(#linearGradient-1)" fill-rule="nonzero"></path>
                <path d="M19.8205552,19.8608493 L16.8665866,16.8852663 L16.8665866,16.6763271 L19.8205552,13.6935394 L19.8853983,13.7295634 L23.4229557,15.7397029 C24.4316279,16.3088822 24.4316279,17.2455064 23.4229557,17.8218904 L19.899808,19.8248252 L19.8205552,19.8608493 Z" id="Shape" fill="url(#linearGradient-2)" fill-rule="nonzero"></path>
                <path d="M19.9070128,19.8176204 L16.8665866,16.7771943 L7.88940431,25.7543766 C8.3135638,26.1272412 8.9430553,26.1453996 9.38800299,25.7976054 L19.9142175,19.8176204" id="Shape" fill="url(#linearGradient-3)" fill-rule="nonzero"></path>
                <path d="M19.9070128,13.7367682 L9.38079816,7.75678323 C8.93585059,7.40898898 8.30635898,7.42714736 7.8821996,7.80001206 L16.8665866,16.7771943 L19.9070128,13.7367682 Z" id="Shape" fill="url(#linearGradient-4)" fill-rule="nonzero"></path>
                <path d="M19.8205552,19.7527771 L9.38079816,25.6967382 C8.95358129,26.0161533 8.36705494,26.0161533 7.93983796,25.6967382 L7.88940431,25.7471717 L7.93983796,25.7976054 C8.36625111,26.119429 8.95438512,26.119429 9.38079816,25.7976054 L19.9070128,19.8176204 L19.8205552,19.7527771 Z" id="Shape" fill="#000000" fill-rule="nonzero" opacity="0.2"></path>
                <path d="M7.88940431,25.6535094 C7.65457466,25.3717236 7.53604753,25.0109889 7.55798346,24.6448372 L7.55798346,24.7529092 C7.53604753,25.1190609 7.65457466,25.4797956 7.88940431,25.7615814 L7.93983796,25.7111477 L7.88940431,25.6535094 Z M23.4229557,17.7138184 L19.8205552,19.7527771 L19.8853983,19.8176204 L23.4229557,17.8146856 C23.8315185,17.6227592 24.1063084,17.2270619 24.1434359,16.7771943 C24.0613224,17.1841488 23.7952321,17.5300662 23.4229557,17.7138184 Z" id="Shape" fill="#000000" fill-rule="nonzero" opacity="0.12"></path>
                <path d="M9.38079816,7.85765042 L23.4229557,15.8405702 C23.7952321,16.0243225 24.0613224,16.3702398 24.1434359,16.7771943 C24.1063084,16.3273267 23.8315185,15.9316293 23.4229557,15.7397029 L9.38079816,7.75678323 C8.37212598,7.1876039 7.55077864,7.66312076 7.55077864,8.81588895 L7.55077864,8.92396095 C7.57239311,7.76398794 8.37933081,7.28847109 9.38079816,7.85765042 Z" id="Shape" fill="#FFFFFF" fill-rule="nonzero" opacity="0.25"></path>
            </g>
        </g>
    </g>
</svg>