<?xml version="1.0" encoding="UTF-8"?>
<svg width="77px" height="80px" viewBox="0 0 77 80" version="1.1" xmlns="http://www.w3.org/2000/svg" xmlns:xlink="http://www.w3.org/1999/xlink">
    <!-- Generator: Sketch 50.2 (55047) - http://www.bohemiancoding.com/sketch -->
    <title>bar-chart</title>
    <desc>Created with Sketch.</desc>
    <defs></defs>
    <g id="Page-1" stroke="none" stroke-width="1" fill="none" fill-rule="evenodd">
        <g id="App-Page" transform="translate(-606.000000, -1415.000000)" fill-rule="nonzero">
            <g id="Group-16" transform="translate(40.000000, 1215.000000)">
                <g id="Group-15" transform="translate(394.000000, 120.000000)">
                    <g id="Group-14" transform="translate(50.000000, 80.000000)">
                        <g id="bar-chart" transform="translate(122.000000, 0.000000)">
                            <path d="M15.766376,43.3752827 C15.1427073,43.1173489 14.4245102,43.2591033 13.9467033,43.7345809 L8.45121951,49.2138791 L2.95557927,43.7345809 C2.30452236,43.0841326 1.2474939,43.082885 0.594715447,43.7316179 C0.279985772,44.0444444 0.103449187,44.4693957 0.104231707,44.9122807 L0.104231707,78.1805848 C0.104231707,79.0992593 0.851695122,79.8440546 1.77366057,79.8440546 L15.128622,79.8440546 C16.0505874,79.8440546 16.7980508,79.0992593 16.7980508,78.1805848 L16.7980508,44.9122807 C16.7980508,44.2392203 16.3906707,43.6324366 15.766376,43.3752827 Z" id="Shape" fill="#949EA8"></path>
                            <path d="M29.6656585,30.4272904 C29.0138191,29.7779337 27.9571037,29.7779337 27.3051077,30.4272904 L20.6275488,37.0810136 C20.3134451,37.3930604 20.1369085,37.8167641 20.136752,38.2587135 L20.136752,78.1807407 C20.136752,79.0994152 20.8842154,79.8442105 21.8061809,79.8442105 L35.1611423,79.8442105 C36.0831077,79.8442105 36.8305711,79.0994152 36.8305711,78.1807407 L36.8305711,38.2587135 C36.8313537,37.817232 36.6560691,37.3935283 36.343061,37.0810136 L29.6656585,30.4272904 Z" id="Shape" fill="#949EA8"></path>
                            <path d="M49.6981789,23.7735673 C49.0463394,23.1242105 47.989624,23.1242105 47.337628,23.7735673 L40.6600691,30.4272904 C40.3459654,30.7393372 40.1694289,31.1630409 40.1692724,31.6049903 L40.1692724,78.1807407 C40.1692724,79.0994152 40.9167358,79.8442105 41.8387012,79.8442105 L55.1936626,79.8442105 C56.115628,79.8442105 56.8630915,79.0994152 56.8630915,78.1807407 L56.8630915,31.6049903 C56.863874,31.1635088 56.6885894,30.7398051 56.3755813,30.4272904 L49.6981789,23.7735673 Z" id="Shape" fill="#949EA8"></path>
                            <path d="M76.4082581,20.4467836 L73.0695569,17.12 C72.7559228,16.8082651 72.3307012,16.6334503 71.8876382,16.63423 L68.5487805,16.63423 C68.1057175,16.6334503 67.6804959,16.8081092 67.3668618,17.12 L60.6893028,23.7737232 C60.3764512,24.0862378 60.2010102,24.5099415 60.2017927,24.951423 L60.2017927,78.1807407 C60.2017927,79.0994152 60.9492561,79.8442105 61.8712215,79.8442105 L75.2261829,79.8442105 C76.1481484,79.8442105 76.8956118,79.0994152 76.8956118,78.1807407 L76.8956118,21.6244834 C76.8963943,21.1830019 76.7211098,20.7592982 76.4082581,20.4467836 Z" id="Shape" fill="#FF6E25"></path>
                            <path d="M75.2263394,2.06227916e-15 L65.2100793,2.06227916e-15 C64.2881138,-0.00171539961 63.5393984,0.741832359 63.5376768,1.66050682 C63.5368943,2.10339181 63.7134309,2.52834308 64.0281606,2.84116959 L67.8576585,6.6537232 L55.1938191,19.2723587 L49.6981789,13.7930604 C49.0463394,13.1437037 47.989624,13.1437037 47.337628,13.7930604 L35.1611423,25.9260819 L29.665502,20.4467836 C29.0136626,19.7974269 27.9569472,19.7974269 27.3049512,20.4467836 L8.45121951,39.2333723 L2.95557927,33.7540741 C2.29247154,33.1157895 1.23559959,33.134191 0.595028455,33.7949318 C-0.0297357724,34.4396101 -0.0297357724,35.4615205 0.595028455,36.1060429 L7.2725874,42.7597661 C7.92442683,43.4091228 8.98114228,43.4091228 9.63313821,42.7597661 L28.4837398,23.9764522 L33.9793801,29.4524756 C34.6312195,30.1018324 35.687935,30.1018324 36.3399309,29.4524756 L48.5162602,17.322885 L54.0119004,22.7989084 C54.6637398,23.4482651 55.7204553,23.4482651 56.3724512,22.7989084 L70.2182093,9.00584795 L74.0444207,12.8184016 C74.3575854,13.131384 74.7828069,13.3072904 75.2263394,13.3074464 C75.4452886,13.3079142 75.6620467,13.2648733 75.8640935,13.1809747 C76.4883882,12.9238207 76.8956118,12.317193 76.8957683,11.6439766 L76.8957683,1.66346979 C76.8956118,0.744795322 76.1483049,2.06227916e-15 75.2263394,2.06227916e-15 Z" id="Shape" fill="#151821"></path>
                        </g>
                    </g>
                </g>
            </g>
        </g>
    </g>
</svg>