<?xml version="1.0" encoding="UTF-8"?>
<svg width="70px" height="80px" viewBox="0 0 70 80" version="1.1" xmlns="http://www.w3.org/2000/svg" xmlns:xlink="http://www.w3.org/1999/xlink">
    <!-- Generator: Sketch 50.2 (55047) - http://www.bohemiancoding.com/sketch -->
    <title>shield</title>
    <desc>Created with Sketch.</desc>
    <defs></defs>
    <g id="Page-1" stroke="none" stroke-width="1" fill="none" fill-rule="evenodd">
        <g id="App-Page" transform="translate(-215.000000, -1415.000000)" fill-rule="nonzero">
            <g id="Group-16" transform="translate(40.000000, 1215.000000)">
                <g id="Group-15" transform="translate(0.000000, 120.000000)">
                    <g id="Group-14" transform="translate(50.000000, 80.000000)">
                        <g id="shield" transform="translate(125.000000, 0.000000)">
                            <path d="M68.6632962,10.0534893 L35.4042539,0.0729824561 C35.0935412,-0.0243274854 34.7603786,-0.0243274854 34.4496659,0.0729824561 L1.19062361,10.0534893 C0.486258352,10.2638596 0.0034298441,10.9118129 0.00327394209,11.6470955 L0.00327394209,48.2423392 C0.00327394209,62.9503314 22.4265033,76.0347758 34.4331403,79.7740351 C34.7578842,79.8761793 35.1061693,79.8761793 35.4309131,79.7740351 C47.4241425,76.0346199 69.8473719,62.9501754 69.8473719,48.2423392 L69.8473719,11.6470955 C69.8476837,10.9127485 69.3664143,10.2651072 68.6632962,10.0534893 Z" id="Shape" fill="#949EA8"></path>
                            <ellipse id="Oval" fill="#FFFFFF" cx="34.9253229" cy="38.2618324" rx="18.2924499" ry="18.2975439"></ellipse>
                            <path d="M31.5994655,46.5788694 C31.1581069,46.5796491 30.7345212,46.4049903 30.4220935,46.0930994 L23.7702227,39.4393762 C23.1322717,38.7786355 23.1505122,37.7255361 23.811069,37.0872515 C24.4555679,36.4647173 25.4771938,36.4647173 26.1215367,37.0872515 L31.5993096,42.5632749 L43.7255234,30.4336842 C44.3634744,29.7729435 45.4162806,29.7545419 46.0769933,30.3928265 C46.7375501,31.0309552 46.7559465,32.0840546 46.1178396,32.7449513 C46.1044321,32.7588304 46.0908686,32.7723977 46.0769933,32.785809 L32.7734076,46.0930994 C32.4617595,46.4040546 32.0395768,46.5787135 31.5994655,46.5788694 Z" id="Shape" fill="#FF6E25"></path>
                        </g>
                    </g>
                </g>
            </g>
        </g>
    </g>
</svg>