<?xml version="1.0" encoding="UTF-8"?>
<svg width="80px" height="80px" viewBox="0 0 80 80" version="1.1" xmlns="http://www.w3.org/2000/svg" xmlns:xlink="http://www.w3.org/1999/xlink">
    <!-- Generator: Sketch 50.2 (55047) - http://www.bohemiancoding.com/sketch -->
    <title>icon</title>
    <desc>Created with Sketch.</desc>
    <defs></defs>
    <g id="Symbols" stroke="none" stroke-width="1" fill="none" fill-rule="evenodd">
        <g id="box" transform="translate(-124.000000, -52.000000)" fill="#FF6E25">
            <g id="Box-icon/general" transform="translate(124.000000, 52.000000)">
                <g id="open-book">
                    <path d="M45.3890058,37.8652632 C45.6244834,38.32577 46.0929435,38.5918129 46.5773099,38.5918129 C46.7795712,38.5918129 46.9871345,38.5451852 47.1801949,38.4467836 C47.2586355,38.4068616 55.091462,34.4279142 58.9545419,33.2076413 C59.6545809,32.9854191 60.0430409,32.2375049 59.8208187,31.5376218 C59.5998441,30.8375828 58.8573879,30.4477193 58.1507992,30.668694 C54.0814035,31.9555556 46.3019103,35.9078363 45.9719298,36.0754776 C45.317115,36.4081092 45.0563743,37.2093567 45.3890058,37.8652632 Z" id="Shape" fill-rule="nonzero"></path>
                    <path d="M46.5773099,22.6231579 C46.7795712,22.6231579 46.9871345,22.5765302 47.1801949,22.4781287 C47.2586355,22.4382066 55.091462,18.4592593 58.9545419,17.2389864 C59.6545809,17.0167641 60.0430409,16.2688499 59.8208187,15.5689669 C59.5998441,14.8689279 58.8573879,14.4790643 58.1507992,14.700039 C54.0814035,15.9869006 46.3019103,19.9391813 45.9719298,20.1068226 C45.317271,20.4394542 45.0563743,21.2405458 45.3890058,21.8966082 C45.6244834,22.3569591 46.0929435,22.6231579 46.5773099,22.6231579 Z" id="Shape" fill-rule="nonzero"></path>
                    <path d="M78.5136842,19.9616374 C77.7777778,19.9616374 77.1830019,20.5578168 77.1830019,21.2923197 L77.1830019,73.1909552 C77.1830019,75.3919688 75.3918129,77.1831579 73.1907992,77.1831579 L41.2531774,77.1831579 L41.2531774,74.1211696 C43.1934503,73.4424951 48.2474854,71.8602729 53.2297856,71.8602729 C64.8218324,71.8602729 72.6931774,74.4272904 72.7716179,74.4538012 C73.1720858,74.5868226 73.6193372,74.5203899 73.9692788,74.2700975 C74.3165692,74.019961 74.5214815,73.6180897 74.5214815,73.1907992 L74.5214815,14.6387524 C74.5214815,14.0146589 74.0890448,13.474308 73.4794542,13.339883 C73.4794542,13.339883 72.4361793,13.1070565 70.6529435,12.7795712 C69.9329435,12.6465497 69.237115,13.125614 69.1039376,13.8468616 C68.9709162,14.5707602 69.448577,15.2640936 70.1712281,15.397115 C70.851306,15.5221832 71.4208187,15.6325926 71.859961,15.7205458 L71.859961,71.4223782 C68.8444444,70.6318908 62.1483041,69.1987524 53.2296296,69.1987524 C47.4315789,69.1987524 41.7361404,71.1030019 39.9741131,71.74846 C38.4077973,71.0565302 33.6731384,69.1987524 27.945575,69.1987524 C18.7794152,69.1987524 11.2288499,70.7104873 7.9845614,71.4783626 L7.9845614,15.668616 C10.6420273,15.0152047 18.4907602,13.3079142 27.945575,13.3079142 C32.7975049,13.3079142 36.9585965,14.8182456 38.591501,15.5009747 L38.591501,67.8680702 C38.591501,68.3471345 38.8495906,68.7903314 39.2661209,69.025809 C39.6826511,69.2626901 40.1963353,69.2559844 40.6075634,69.008499 C40.7393372,68.9300585 53.9242105,61.0546589 65.6266667,57.154308 C66.1709162,56.9720078 66.5369201,56.4650292 66.5369201,55.891462 L66.5369201,1.33130604 C66.5369201,0.894814815 66.3226511,0.486237817 65.9633528,0.237504873 C65.6067057,-0.0113840156 65.1490058,-0.0686159844 64.7377778,0.0845224172 C54.0906043,4.07797271 43.317115,10.7822222 43.2092008,10.8488109 C42.5863548,11.2386745 42.3961014,12.0597271 42.7859649,12.6825731 C43.1745809,13.3054191 43.9956335,13.4956725 44.6197271,13.105809 C44.7181287,13.0432749 54.0906043,7.2120078 63.8753996,3.27703704 L63.8753996,54.9387914 C54.7917349,58.0952827 45.3076023,63.2492788 41.2528655,65.5566472 L41.2528655,14.6387524 C41.2528655,14.134425 40.9681092,13.6739181 40.5169591,13.4477973 C40.2880312,13.3347368 34.8347758,10.6465497 27.945575,10.6465497 C15.9210916,10.6465497 6.67649123,13.2481871 6.28787524,13.3598441 C5.71695906,13.5221832 5.32304094,14.0452242 5.32304094,14.6387524 L5.32304094,73.1911111 C5.32304094,73.6076413 5.52,74.0015595 5.85138402,74.2530994 C6.08561404,74.4300975 6.3677193,74.5219493 6.65387914,74.5219493 C6.7762963,74.5219493 6.89871345,74.5046394 7.01847953,74.4700195 C7.11033138,74.4447563 16.3123587,71.8604288 27.945575,71.8604288 C32.8107602,71.8604288 36.9679532,73.3748148 38.591501,74.0547368 L38.591501,77.1833138 L6.65387914,77.1833138 C4.4528655,77.1833138 2.66167641,75.3921248 2.66167641,73.1911111 L2.66167641,21.2924756 C2.66167641,20.5579727 2.06549708,19.9617934 1.33099415,19.9617934 C0.596491228,19.9617934 0.000311890838,20.5579727 0.000311890838,21.2924756 L0.000311890838,73.1911111 C0.000311890838,76.859883 2.98510721,79.8448343 6.65403509,79.8448343 L73.1907992,79.8448343 C76.8595712,79.8448343 79.8445224,76.860039 79.8445224,73.1911111 L79.8445224,21.2924756 C79.8443665,20.5578168 79.2495906,19.9616374 78.5136842,19.9616374 Z" id="Shape" fill-rule="nonzero"></path>
                    <path d="M45.3890058,29.8808577 C45.6244834,30.3413645 46.0929435,30.6074074 46.5773099,30.6074074 C46.7795712,30.6074074 46.9871345,30.5607797 47.1801949,30.4623782 C47.2586355,30.4224561 55.091462,26.4435088 58.9545419,25.2232359 C59.6545809,25.0010136 60.0430409,24.2530994 59.8208187,23.5532164 C59.5998441,22.8531774 58.8573879,22.4633138 58.1507992,22.6842885 C54.0814035,23.9711501 46.3019103,27.9234308 45.9719298,28.0910721 C45.317115,28.4237037 45.0563743,29.2249513 45.3890058,29.8808577 Z" id="Shape" fill-rule="nonzero"></path>
                    <path d="M45.3890058,45.8496686 C45.6244834,46.3101754 46.0929435,46.5762183 46.5773099,46.5762183 C46.7795712,46.5762183 46.9871345,46.5295906 47.1801949,46.4311891 C47.2586355,46.3912671 55.091462,42.4123197 58.9545419,41.1920468 C59.6545809,40.9698246 60.0430409,40.2219103 59.8208187,39.5220273 C59.5998441,38.8219883 58.8573879,38.4321248 58.1507992,38.6530994 C54.0814035,39.939961 46.3019103,43.8922417 45.9719298,44.059883 C45.317115,44.3925146 45.0563743,45.1937622 45.3890058,45.8496686 Z" id="Shape" fill-rule="nonzero"></path>
                    <path d="M32.2414035,24.6964522 C24.0241715,22.7681871 14.6863158,25.2247953 14.2938012,25.3299025 C13.5845614,25.5201559 13.162729,26.2493567 13.3529825,26.96 C13.5126706,27.5547758 14.0502144,27.9460429 14.637193,27.9460429 C14.7516569,27.9460429 14.8673684,27.931384 14.9832359,27.9008187 C15.0724366,27.8755556 24.062846,25.5107992 31.6347758,27.2873294 C32.3466667,27.4537232 33.0666667,27.0105263 33.234308,26.2945809 C33.4017934,25.580039 32.9573489,24.8640936 32.2414035,24.6964522 Z" id="Shape" fill-rule="nonzero"></path>
                    <path d="M32.2414035,32.6808577 C24.0241715,30.7539961 14.6863158,33.2092008 14.2938012,33.314308 C13.5845614,33.5045614 13.162729,34.2339181 13.3529825,34.9444055 C13.5126706,35.5391813 14.0502144,35.9304483 14.637193,35.9304483 C14.7516569,35.9304483 14.8673684,35.9157895 14.9832359,35.8852242 C15.0724366,35.859961 24.062846,33.4952047 31.6347758,35.2717349 C32.3466667,35.4381287 33.0666667,34.9949318 33.234308,34.2789864 C33.4017934,33.5644444 32.9573489,32.848499 32.2414035,32.6808577 Z" id="Shape" fill-rule="nonzero"></path>
                    <path d="M45.3890058,53.8340741 C45.6244834,54.2945809 46.0929435,54.5606238 46.5773099,54.5606238 C46.7795712,54.5606238 46.9871345,54.5139961 47.1801949,54.4155945 C47.2586355,54.3756725 55.091462,50.3967251 58.9545419,49.1764522 C59.6545809,48.95423 60.0430409,48.2063158 59.8208187,47.5064327 C59.5998441,46.8065497 58.8573879,46.4165302 58.1507992,46.6375049 C54.0814035,47.9243665 46.3019103,51.8766472 45.9719298,52.0442885 C45.317115,52.3769201 45.0563743,53.1781676 45.3890058,53.8340741 Z" id="Shape" fill-rule="nonzero"></path>
                    <path d="M32.2414035,40.6652632 C24.0241715,38.7384016 14.6863158,41.1922027 14.2938012,41.2987135 C13.5845614,41.4889669 13.162729,42.2183236 13.3529825,42.9288109 C13.5126706,43.5235867 14.0502144,43.9162573 14.637193,43.9162573 C14.7516569,43.9162573 14.8673684,43.9003509 14.9832359,43.8696296 C15.0724366,43.8443665 24.062846,41.4796101 31.6347758,43.2561404 C32.3466667,43.4225341 33.0666667,42.9793372 33.234308,42.2633918 C33.4017934,41.5488499 32.9573489,40.8329045 32.2414035,40.6652632 Z" id="Shape" fill-rule="nonzero"></path>
                    <path d="M32.2414035,56.6340741 C24.0241715,54.705809 14.6863158,57.1624172 14.2938012,57.2675244 C13.5845614,57.4577778 13.162729,58.1871345 13.3529825,58.8976218 C13.5126706,59.4923977 14.0502144,59.8850682 14.637193,59.8850682 C14.7516569,59.8850682 14.8673684,59.8691618 14.9832359,59.8384405 C15.0724366,59.8131774 24.062846,57.4484211 31.6347758,59.2249513 C32.3466667,59.3899415 33.0666667,58.9481481 33.234308,58.2322027 C33.4017934,57.5176608 32.9573489,56.8017154 32.2414035,56.6340741 Z" id="Shape" fill-rule="nonzero"></path>
                    <path d="M32.2414035,48.6496686 C24.0241715,46.7214035 14.6863158,49.1766082 14.2938012,49.2831189 C13.5845614,49.4733723 13.162729,50.202729 13.3529825,50.9132164 C13.5126706,51.5079922 14.0502144,51.9006628 14.637193,51.9006628 C14.7516569,51.9006628 14.8673684,51.8847563 14.9832359,51.8540351 C15.0724366,51.8287719 24.062846,49.4640156 31.6347758,51.2405458 C32.3466667,51.4069396 33.0666667,50.9637427 33.234308,50.2477973 C33.4017934,49.5332554 32.9573489,48.8173099 32.2414035,48.6496686 Z" id="Shape" fill-rule="nonzero"></path>
                </g>
            </g>
        </g>
    </g>
</svg>