<?xml version="1.0" encoding="UTF-8"?>
<svg width="84px" height="84px" viewBox="0 0 84 84" version="1.1" xmlns="http://www.w3.org/2000/svg" xmlns:xlink="http://www.w3.org/1999/xlink">
    <!-- Generator: Sketch 50.2 (55047) - http://www.bohemiancoding.com/sketch -->
    <title>gear</title>
    <desc>Created with Sketch.</desc>
    <defs></defs>
    <g id="Symbols" stroke="none" stroke-width="1" fill="none" fill-rule="evenodd">
        <g id="Box-icon/HowTo" transform="translate(2.000000, 2.000000)" fill-rule="nonzero" stroke="#FF6E25" stroke-width="3">
            <g id="gear">
                <path d="M76.242963,43.5816835 L73.343165,43.5816835 C72.5585185,43.5816835 71.6436364,42.8716498 71.3453199,42.0308418 C71.0688215,41.2515825 70.7439731,40.4759596 70.3810101,39.7249832 C69.9943434,38.92633 70.1367003,37.783165 70.6914478,37.2284175 L72.7555556,35.1640404 C74.2017508,33.7179798 74.2017508,31.3647138 72.7555556,29.9185185 L69.4051178,26.5680808 C68.7043771,25.8674747 67.7731987,25.4817508 66.7822222,25.4817508 C65.7916498,25.4817508 64.860202,25.8674747 64.159596,26.5680808 L62.0952189,28.6324579 C61.763771,28.963771 61.2118519,29.1616162 60.6195286,29.1616162 C60.2486195,29.1616162 59.8956229,29.0857912 59.5994613,28.9423569 C58.8482155,28.5788552 58.0713805,28.2537374 57.2903704,27.9758923 C56.4499663,27.6775758 55.7399327,26.7626936 55.7399327,25.9783165 L55.7399327,23.0782492 C55.7399327,21.033266 54.0760943,19.3691582 52.0307071,19.3691582 L47.2914478,19.3691582 C45.2459259,19.3691582 43.5822222,21.033266 43.5822222,23.0782492 L43.5822222,25.9783165 C43.5822222,26.762963 42.8723232,27.6779798 42.0317845,27.9758923 C41.2518519,28.2529293 40.4752862,28.5772391 39.7248485,28.9399327 C39.4335354,29.0808081 39.0720539,29.1583838 38.706936,29.1583838 C38.1121886,29.1583838 37.5587879,28.9601347 37.226532,28.6280135 L35.1655219,26.5678114 C34.4649158,25.8672054 33.533468,25.4814815 32.5423569,25.4814815 C31.5516498,25.4814815 30.620202,25.8672054 29.919596,26.5674074 L26.5657912,29.9191919 C25.8647811,30.6193939 25.4790572,31.5507071 25.4786532,32.5415488 C25.4786532,33.5322559 25.8643771,34.4637037 26.5649832,35.1643098 L28.6293603,37.2286869 C29.1845118,37.7838384 29.327138,38.9278114 28.9406061,39.7270034 C28.5783165,40.476633 28.2540067,41.2518519 27.9775084,42.0315152 C27.6791919,42.8717845 26.7647138,43.5819529 25.9799327,43.5819529 L23.0802694,43.5819529 C21.0348822,43.5819529 19.3711785,45.2460606 19.3711785,47.2910438 L19.3711785,52.0304377 C19.3711785,54.0754209 21.0348822,55.7395286 23.0802694,55.7395286 L25.9799327,55.7395286 C26.7647138,55.7395286 27.679596,56.4491582 27.9779125,57.2895623 C28.2540067,58.0670707 28.5783165,58.8426936 28.9418182,59.5940741 C29.3280808,60.3927273 29.1850505,61.536835 28.6294949,62.0923906 L26.5651178,64.156633 C25.1190572,65.6026936 25.1190572,67.9559596 26.5651178,69.4020202 L29.9202694,72.7575758 C30.6208754,73.4581818 31.5523232,73.8439057 32.5430303,73.8439057 C33.5337374,73.8439057 34.4651852,73.4581818 35.1657912,72.7575758 L37.2301684,70.6933333 C37.5622896,70.3610774 38.1154209,70.162963 38.7096296,70.162963 C39.0801347,70.162963 39.4320539,70.2383838 39.7275421,70.3814141 C40.4785185,70.7443771 41.2538721,71.0688215 42.0325926,71.3453199 C42.8727273,71.6436364 43.5830303,72.5585185 43.5830303,73.3432997 L43.5830303,76.243367 C43.5830303,78.2883502 45.2468687,79.9523232 47.2919865,79.9523232 L52.0315152,79.9523232 C54.0767677,79.9523232 55.7404714,78.2883502 55.7404714,76.243367 L55.7404714,73.3432997 C55.7404714,72.5585185 56.4506397,71.6436364 57.2909091,71.3457239 C58.0711111,71.0686869 58.8476768,70.7443771 59.5981145,70.3818182 C59.8892929,70.2408081 60.2507744,70.163367 60.6158923,70.163367 C61.2106397,70.163367 61.763771,70.3616162 62.0960269,70.6937374 L64.1601347,72.7579798 C64.8608754,73.4585859 65.7917845,73.8443098 66.7824916,73.8443098 C67.7736027,73.8443098 68.7050505,73.4581818 69.4056566,72.7571717 L72.7577104,69.403367 C74.2028283,67.9569024 74.2028283,65.6036364 72.7571717,64.1574411 L70.6946801,62.0940067 C70.1399327,61.5393939 69.9975758,60.3952862 70.3837037,59.5960943 C70.7463973,58.8460606 71.070303,58.0700337 71.3472054,57.2903704 C71.6452525,56.450101 72.5598653,55.7403367 73.3445118,55.7403367 L76.2440404,55.7403367 C78.2895623,55.7403367 79.953266,54.076229 79.953266,52.0312458 L79.953266,47.2918519 C79.9519192,45.2455219 78.2878114,43.5816835 76.242963,43.5816835 Z M60.5307744,49.6604714 C60.5307744,55.6540067 55.6544108,60.5302357 49.6608754,60.5302357 C43.6676094,60.5302357 38.7912458,55.6540067 38.7912458,49.6604714 C38.7912458,43.6670707 43.6676094,38.7908418 49.6608754,38.7908418 C55.6544108,38.7908418 60.5307744,43.6666667 60.5307744,49.6604714 Z" id="Shape"></path>
                <path d="M27.1876094,19.7850505 C27.2577778,19.5876094 27.4922559,19.4211448 27.6026936,19.4211448 L29.0550842,19.4211448 C30.4184512,19.4211448 31.5278114,18.3121886 31.5278114,16.9484175 L31.5278114,14.5787205 C31.5278114,13.2150842 30.4184512,12.1059933 29.0550842,12.1059933 L27.6030976,12.1059933 C27.4926599,12.1059933 27.2581818,11.9395286 27.1881481,11.7420875 C27.0422896,11.3311785 26.8712458,10.9220202 26.679596,10.526734 C26.5901684,10.3416835 26.6375758,10.0626263 26.7150168,9.98518519 L27.7474747,8.95286195 C28.7113805,7.98841751 28.7113805,6.41993266 27.7474747,5.45602694 L26.0721886,3.78074074 C25.6052525,3.31380471 24.9841077,3.05670034 24.3236364,3.05670034 C23.6630303,3.05670034 23.0418855,3.31434343 22.5749495,3.78114478 L21.5430303,4.81319865 C21.5108418,4.84538721 21.400404,4.89683502 21.2417508,4.89683502 C21.1515152,4.89683502 21.0641077,4.87959596 21.0014815,4.84902357 C20.6055219,4.65737374 20.196633,4.48632997 19.7861279,4.34087542 C19.5882828,4.27084175 19.4218182,4.03582492 19.4218182,3.92579125 L19.4218182,2.47353535 C19.4218182,1.10976431 18.3124579,0.000808080808 16.9490909,0.000808080808 L14.5793939,0.000808080808 C13.2160269,0.000808080808 12.1066667,1.10976431 12.1066667,2.47353535 L12.1066667,3.92579125 C12.1066667,4.03622896 11.940202,4.27030303 11.7427609,4.34047138 C11.3302357,4.48673401 10.9209428,4.65818182 10.5265993,4.84902357 C10.4643771,4.87905724 10.3765657,4.89643098 10.28633,4.89643098 C10.1276768,4.89643098 10.0176431,4.84538721 9.98558923,4.81319865 L8.95313131,3.78114478 C8.48619529,3.31420875 7.86518519,3.05710438 7.20457912,3.05710438 C6.54397306,3.05710438 5.92323232,3.31420875 5.45643098,3.78114478 L3.78087542,5.45643098 C2.8169697,6.42087542 2.8169697,7.98976431 3.78087542,8.95367003 L4.81279461,9.98558923 C4.89023569,10.0630303 4.93804714,10.3420875 4.84861953,10.526734 C4.6569697,10.9224242 4.48592593,11.3315825 4.34006734,11.7424916 C4.27003367,11.9399327 4.03501684,12.1068013 3.92498316,12.1068013 L2.47272727,12.1068013 C1.10949495,12.1068013 0,13.2157576 0,14.5795286 L0,16.9492256 C0,18.3125926 1.10909091,19.4219529 2.47232323,19.4219529 L3.9247138,19.4219529 C4.03515152,19.4219529 4.26962963,19.5884175 4.33979798,19.7858586 C4.48565657,20.1971717 4.65670034,20.6059259 4.84835017,21.0012121 C4.93777778,21.1862626 4.89037037,21.4651852 4.81292929,21.5427609 L3.78047138,22.5752189 C3.31353535,23.0421549 3.05643098,23.6632997 3.05643098,24.323771 C3.05643098,24.9843771 3.31353535,25.6051178 3.78087542,26.0724579 L5.45616162,27.7473401 C5.92309764,28.2142761 6.54410774,28.4713805 7.2047138,28.4713805 C7.86531987,28.4713805 8.48606061,28.2142761 8.95286195,27.7473401 L9.98531987,26.7150168 C10.0173737,26.6828283 10.1279461,26.6313805 10.2865993,26.6313805 C10.376835,26.6313805 10.4642424,26.6486195 10.5268687,26.6790572 C10.922963,26.8707071 11.3318519,27.0417508 11.7422222,27.1872054 C11.9400673,27.2572391 12.106532,27.4921212 12.106532,27.6021549 L12.106532,29.0545455 C12.106532,30.4181818 13.2160269,31.5272727 14.5792593,31.5272727 L16.9489562,31.5272727 C18.3123232,31.5272727 19.4216835,30.4183165 19.4216835,29.0545455 L19.4216835,27.6025589 C19.4216835,27.4921212 19.5881481,27.2580471 19.7855892,27.1880135 C20.1964983,27.0421549 20.6052525,26.8711111 21.0009428,26.6794613 C21.063569,26.6488889 21.1513805,26.6316498 21.2416162,26.6316498 C21.4002694,26.6316498 21.510303,26.6830976 21.5428956,26.7152862 L22.5753535,27.7476094 C23.0422896,28.2145455 23.6632997,28.4716498 24.3239057,28.4716498 C24.9845118,28.4716498 25.6052525,28.2145455 26.0720539,27.7476094 L27.7473401,26.0724579 C28.7112458,25.1080135 28.7112458,23.5395286 27.7473401,22.5756229 L26.7154209,21.5437037 C26.6378451,21.4662626 26.5900337,21.1868013 26.6794613,21.0021549 C26.8712458,20.6043098 27.0421549,20.1955556 27.1876094,19.7850505 Z M20.5806061,15.7635017 C20.5806061,18.4192593 18.4199327,20.5803367 15.7641751,20.5803367 C13.1080135,20.5803367 10.9473401,18.4196633 10.9473401,15.7635017 C10.9473401,13.1073401 13.1080135,10.9466667 15.7641751,10.9466667 C18.419798,10.9466667 20.5806061,13.1074747 20.5806061,15.7635017 Z" id="Shape"></path>
            </g>
        </g>
    </g>
</svg>