<?xml version="1.0" encoding="UTF-8"?>
<svg width="80px" height="72px" viewBox="0 0 80 72" version="1.1" xmlns="http://www.w3.org/2000/svg" xmlns:xlink="http://www.w3.org/1999/xlink">
    <!-- Generator: Sketch 50.2 (55047) - http://www.bohemiancoding.com/sketch -->
    <title>question</title>
    <desc>Created with Sketch.</desc>
    <defs></defs>
    <g id="Symbols" stroke="none" stroke-width="1" fill="none" fill-rule="evenodd">
        <g id="Box-icon/Trubleshhoting" transform="translate(0.000000, -4.000000)" fill="#FF6E25" fill-rule="nonzero">
            <g id="question" transform="translate(0.000000, 4.000000)">
                <path d="M70.7536842,25.0983236 L44.9921248,25.0983236 C45.0808577,24.6270565 45.1276413,24.1462768 45.1276413,23.6566082 L45.1276413,7.83095517 C45.1276413,3.55306043 41.6474074,0.0729824561 37.3696686,0.0729824561 L7.75625731,0.0729824561 C3.47929825,0.0729824561 0,3.55306043 0,7.83095517 L0,23.6566082 C0,27.9334113 3.47929825,31.4127096 7.75625731,31.4127096 L12.3131384,31.4127096 L12.0672125,37.1418324 C12.0450682,37.6587914 12.3131384,38.1448733 12.7622612,38.4017154 C12.9754386,38.5236647 13.2123197,38.5843275 13.4492008,38.5843275 C13.7110331,38.5843275 13.9725536,38.5099415 14.2007018,38.3622612 L24.9384795,31.4125536 L26.2989474,31.4125536 C26.0179337,32.2875634 25.8644834,33.2191813 25.8644834,34.1861988 L25.8644834,53.3169591 C25.8644834,58.3281092 29.9413645,62.4051462 34.9526706,62.4051462 L38.8790643,62.4051462 L47.5362183,71.2464717 C47.8008577,71.5168811 48.1589084,71.6619103 48.5244444,71.6619103 C48.6780507,71.6619103 48.8329045,71.6363353 48.982924,71.5834698 C49.4897466,71.4053801 49.8474854,70.9498635 49.9005068,70.4152827 L50.6953606,62.4051462 L70.7538402,62.4051462 C75.7663938,62.4051462 79.8442105,58.3281092 79.8442105,53.3169591 L79.8442105,34.1863548 C79.8440546,29.1750487 75.7660819,25.0983236 70.7536842,25.0983236 Z M27.7551657,28.6465497 L24.5297466,28.6465497 C24.2630799,28.6465497 24.0021832,28.7235867 23.7782456,28.868616 L14.945653,34.5852632 L15.1387135,30.0890448 C15.1549318,29.7122807 15.0164522,29.3453411 14.7557115,29.0729045 C14.4948148,28.8004678 14.1341131,28.6465497 13.757037,28.6465497 L7.75641326,28.6465497 C5.00475634,28.6465497 2.7660039,26.4081092 2.7660039,23.6566082 L2.7660039,7.83095517 C2.7660039,5.07836257 5.00475634,2.8391423 7.75625731,2.8391423 L37.3699805,2.8391423 C40.1225731,2.8391423 42.3617934,5.07851852 42.3617934,7.83095517 L42.3617934,23.6566082 C42.3617934,24.1520468 42.2902144,24.634386 42.1497076,25.0983236 L34.9525146,25.0983236 C32.0252632,25.0983236 29.4186355,26.4907602 27.7551657,28.6465497 Z M77.0782066,53.3169591 C77.0782066,56.802963 74.2410916,59.6391423 70.7538402,59.6391423 L49.4424951,59.6391423 C48.73154,59.6391423 48.1362963,60.1780897 48.0661209,60.88577 L47.4403119,67.1951657 L40.448655,60.0547368 C40.188694,59.7890058 39.8323587,59.6392982 39.4605848,59.6392982 L34.9528265,59.6392982 C31.4668226,59.6392982 28.6306433,56.8031189 28.6306433,53.317115 L28.6306433,34.1863548 C28.6306433,30.7003509 31.4668226,27.8643275 34.9528265,27.8643275 L70.7539961,27.8643275 L70.7539961,27.8641715 C74.2412476,27.8641715 77.0783626,30.7001949 77.0783626,34.1861988 L77.0783626,53.3169591 L77.0782066,53.3169591 Z" id="Shape"></path>
                <path d="M28.5863548,10.5662378 C28.3982846,7.5388694 25.9734893,5.11407407 22.9461209,4.92615984 C21.2608187,4.8219883 19.6578558,5.39836257 18.4316569,6.55079922 C17.2224561,7.68717349 16.5292788,9.29013645 16.5292788,10.948616 C16.5291228,11.7127485 17.1480702,12.3318519 17.9122027,12.3318519 C18.6763353,12.3318519 19.2952827,11.7125926 19.2952827,10.9487719 C19.2952827,10.037115 19.6612865,9.19126706 20.3259259,8.56639376 C20.9899415,7.94230019 21.8598051,7.62994152 22.7745809,7.68670565 C24.3853411,7.78666667 25.7253801,9.12670565 25.8254971,10.7373099 C25.9009747,11.9539961 25.3037037,13.1040936 24.2665107,13.7391033 C22.334191,14.9219493 21.1805068,16.9660819 21.1805068,19.2073294 C21.1805068,19.9711501 21.7996101,20.5904094 22.5635867,20.5904094 C23.3275634,20.5904094 23.9466667,19.9711501 23.9466667,19.2073294 C23.9466667,17.9365302 24.6061598,16.774425 25.7107212,16.0982456 C27.6233918,14.9275634 28.7254581,12.8076413 28.5863548,10.5662378 Z" id="Shape"></path>
                <path d="M52.8538012,33.4346979 C52.0898246,33.4346979 51.4707212,34.0539571 51.4707212,34.8177778 L51.4707212,46.5235088 C51.4707212,47.2873294 52.0899805,47.9065887 52.8538012,47.9065887 C53.6177778,47.9065887 54.2368811,47.2873294 54.2368811,46.5235088 L54.2368811,34.8177778 C54.2367251,34.0539571 53.6177778,33.4346979 52.8538012,33.4346979 Z" id="Shape"></path>
                <circle id="Oval" cx="52.8523977" cy="52.7201559" r="1.38307992"></circle>
                <circle id="Oval" cx="22.5620273" cy="24.3346589" r="1.38307992"></circle>
            </g>
        </g>
    </g>
</svg>